<svg width="181" height="30" viewBox="0 0 181 30" fill="none" xmlns="http://www.w3.org/2000/svg">
<path d="M4.10769 23.6361H1.0546C0.703847 23.6361 0.559603 23.454 0.681031 23.1063L7.14378 4.63461H3.04539C2.73486 4.63461 2.57786 4.48882 2.57786 4.19801V1.83094C2.57786 1.51963 2.73409 1.36379 3.04539 1.36379C8.68212 1.36379 14.3185 1.36379 19.9552 1.36379C20.2673 1.36379 20.4223 1.52041 20.4223 1.83094V4.19801C20.4223 4.48804 20.2665 4.63461 19.9552 4.63461H15.8634L22.3261 23.1063C22.4298 23.4598 22.3052 23.6361 21.9522 23.6361H18.8991C18.6087 23.6361 18.4319 23.512 18.3693 23.2626L16.8433 18.559H6.16385L4.63749 23.2626C4.55744 23.5112 4.37646 23.6361 4.10769 23.6361ZM24.8177 8.25269C26.7277 7.50518 28.8245 7.13161 31.1084 7.13161C33.267 7.13161 35.0006 7.7024 36.3081 8.84436C37.6164 9.98633 38.2703 11.6882 38.2703 13.9513V17.3768C38.2703 19.3908 37.6264 20.9995 36.3394 22.2037C35.0525 23.4076 33.4024 24.0097 31.3884 24.0097C30.2468 24.0097 29.1462 23.7815 28.0874 23.3248V29.0857C28.0874 29.397 27.9315 29.5528 27.6202 29.5528H24.9422C24.6309 29.5528 24.4755 29.397 24.4755 29.0857V8.75117C24.4755 8.50174 24.5896 8.33584 24.8177 8.25269ZM31.0771 20.8336C33.4229 20.8336 34.5958 19.6913 34.5958 17.4081V13.9207C34.5958 12.633 34.2949 11.7095 33.6932 11.1488C33.0911 10.5884 32.1981 10.3077 31.0148 10.3077C29.7688 10.3077 28.7931 10.4531 28.0874 10.7439V19.9616C28.9385 20.5428 29.9347 20.8336 31.0771 20.8336ZM54.9925 23.6361H51.8474C51.5775 23.6361 51.3907 23.5425 51.2867 23.3562L46.4292 16.9719L45.1522 18.342V23.169C45.1522 23.4803 44.996 23.6361 44.6847 23.6361H42.1003C41.789 23.6361 41.6335 23.4803 41.6335 23.169V7.97271C41.6335 7.66141 41.789 7.50518 42.1003 7.50518H44.6847C44.996 7.50518 45.1522 7.66141 45.1522 7.97271V13.9822L50.7263 7.75422C50.8505 7.58832 51.0376 7.50518 51.2867 7.50518H54.4322C54.6391 7.50518 54.7694 7.557 54.8212 7.66141C54.873 7.76505 54.8371 7.89962 54.7122 8.06552L48.8268 14.4498L55.3038 23.0758C55.532 23.4494 55.4284 23.6361 54.9925 23.6361ZM70.3443 17.7194C70.3443 19.6503 69.7012 21.1813 68.4142 22.3124C67.1264 23.4443 65.4032 24.0097 63.245 24.0097C61.0856 24.0097 59.3624 23.4443 58.0754 22.3124C56.7884 21.1813 56.1446 19.6503 56.1446 17.7194V13.5468C56.1446 11.5954 56.7884 10.0381 58.0754 8.8753C59.3624 7.71323 61.0856 7.13161 63.245 7.13161C65.4032 7.13161 67.1264 7.71323 68.4142 8.8753C69.7012 10.0381 70.3443 11.5954 70.3443 13.5468V17.7194ZM59.7882 17.7194C59.7882 19.7539 60.9402 20.7714 63.245 20.7714C64.3661 20.7714 65.2223 20.5119 65.8135 19.9925C66.4056 19.4736 66.701 18.7156 66.701 17.7194V13.5468C66.701 12.5294 66.4002 11.7455 65.7985 11.1952C65.1963 10.6457 64.3448 10.3703 63.245 10.3703C62.1239 10.3703 61.2673 10.6403 60.6753 11.1801C60.084 11.7196 59.7882 12.5089 59.7882 13.5468V17.7194ZM77.5994 23.6361H74.7659C74.4751 23.6361 74.3297 23.4803 74.3297 23.169V1.83751C74.3297 1.52621 74.4751 1.37075 74.7659 1.37075H78.1601C78.4092 1.37075 78.5751 1.48522 78.6582 1.71338L82.4573 8.78249C83.2462 10.2559 84.1286 12.0835 85.1043 14.263H85.2285C86.2045 12.0835 87.087 10.2559 87.8755 8.78249L91.6436 1.71338C91.7682 1.48522 91.9445 1.37075 92.173 1.37075H95.5363C95.8476 1.37075 96.0034 1.52621 96.0034 1.83751V23.169C96.0034 23.4803 95.8476 23.6361 95.5363 23.6361H92.7025C92.4117 23.6361 92.2663 23.4803 92.2663 23.169V16.9096C92.2663 14.4602 92.3494 11.2006 92.5153 7.13161L92.4225 7.10029C91.7991 8.44992 90.8652 10.3703 89.6192 12.8611L86.8793 18.1866C86.7753 18.4151 86.5994 18.5292 86.3495 18.5292H83.9832C83.7338 18.5292 83.5579 18.4151 83.4538 18.1866L80.7136 12.8611C79.468 10.3703 78.5341 8.44992 77.9107 7.10029L77.8179 7.13161C77.9838 11.2006 78.0665 14.4602 78.0665 16.9096V23.169C78.0665 23.4803 77.9107 23.6361 77.5994 23.6361ZM113.598 13.5159V16.6606C113.598 16.9514 113.441 17.0968 113.13 17.0968H103.664V17.9681C103.664 18.9028 103.96 19.6135 104.551 20.1016C105.143 20.5896 105.947 20.8336 106.965 20.8336C108.48 20.8336 109.944 20.3556 111.356 19.4012C111.604 19.2346 111.812 19.2659 111.978 19.4941L113.255 21.2072C113.463 21.4357 113.432 21.6535 113.162 21.8611C111.356 23.2935 109.248 24.0097 106.84 24.0097C104.93 24.0097 103.316 23.4853 101.998 22.4373C100.68 21.3886 100.021 19.8893 100.021 17.9375V13.5159C100.021 11.3769 100.685 9.77866 102.014 8.71984C103.342 7.66141 104.961 7.13161 106.871 7.13161C108.76 7.13161 110.354 7.66141 111.651 8.71984C112.949 9.77866 113.598 11.3769 113.598 13.5159ZM110.079 13.4845C110.079 12.4044 109.778 11.6055 109.176 11.0865C108.574 10.5672 107.806 10.3077 106.871 10.3077C104.733 10.3077 103.664 11.3665 103.664 13.4845V14.2935H110.079V13.4845ZM120.323 9.06247C121.404 8.5435 122.607 8.28402 123.936 8.28402C125.908 8.28402 127.507 8.83934 128.731 9.94998C129.956 11.0606 130.569 12.633 130.569 14.6675V17.4391C130.569 19.619 129.899 21.259 128.56 22.3592C127.221 23.4594 125.555 24.0097 123.562 24.0097C121.632 24.0097 120.007 23.4544 118.689 22.3437C117.37 21.2331 116.711 19.5876 116.711 17.4081V8.00365C116.711 6.09367 117.339 4.58859 118.595 3.48839C119.852 2.3878 121.341 1.67161 123.064 1.33981C125.535 0.9036 127.102 0.519207 127.766 0.187407C128.057 0.0624989 128.264 0.115092 128.389 0.343253L129.541 2.30466C129.666 2.59547 129.613 2.80313 129.385 2.92804C128.659 3.34298 126.977 3.85151 124.341 4.45324C123.759 4.59864 123.271 4.74405 122.877 4.88945C122.483 5.03485 122.067 5.24252 121.632 5.51206C121.195 5.78237 120.868 6.13544 120.651 6.57126C120.432 7.00709 120.323 7.52606 120.323 8.12817V9.06247ZM123.531 20.7714C124.507 20.7714 125.311 20.5011 125.944 19.9616C126.577 19.4217 126.894 18.5915 126.894 17.4704V14.7297C126.894 12.4876 125.794 11.3665 123.593 11.3665C122.368 11.3665 121.279 11.6159 120.323 12.114V17.4391C120.323 18.581 120.625 19.4217 121.227 19.9616C121.829 20.5011 122.597 20.7714 123.531 20.7714ZM147.01 13.5159V16.6606C147.01 16.9514 146.855 17.0968 146.543 17.0968H137.077V17.9681C137.077 18.9028 137.373 19.6135 137.964 20.1016C138.556 20.5896 139.36 20.8336 140.378 20.8336C141.893 20.8336 143.356 20.3556 144.768 19.4012C145.017 19.2346 145.225 19.2659 145.391 19.4941L146.668 21.2072C146.876 21.4357 146.845 21.6535 146.575 21.8611C144.768 23.2935 142.661 24.0097 140.253 24.0097C138.343 24.0097 136.729 23.4853 135.411 22.4373C134.092 21.3886 133.433 19.8893 133.433 17.9375V13.5159C133.433 11.3769 134.098 9.77866 135.426 8.71984C136.755 7.66141 138.374 7.13161 140.284 7.13161C142.173 7.13161 143.767 7.66141 145.065 8.71984C146.362 9.77866 147.01 11.3769 147.01 13.5159ZM143.492 13.4845C143.492 12.4044 143.191 11.6055 142.588 11.0865C141.987 10.5672 141.219 10.3077 140.284 10.3077C138.146 10.3077 137.077 11.3665 137.077 13.4845V14.2935H143.492V13.4845ZM154.826 18.342C154.432 20.3147 153.83 21.6999 153.02 22.4996C152.211 23.2989 150.924 23.7297 149.159 23.792C148.868 23.792 148.723 23.6361 148.723 23.3248V21.0513C148.723 20.7814 148.868 20.6155 149.159 20.5529C149.761 20.5119 150.233 20.2628 150.576 19.8057C150.918 19.349 151.204 18.5292 151.432 17.3455C151.785 15.2905 152.045 12.1558 152.211 7.94139C152.252 7.65058 152.407 7.50518 152.678 7.50518H163.265C163.577 7.50518 163.733 7.65058 163.733 7.94139V23.169C163.733 23.4803 163.577 23.6361 163.265 23.6361H160.587C160.276 23.6361 160.12 23.4803 160.12 23.169V10.6816H155.574C155.47 13.6504 155.221 16.2039 154.826 18.342ZM174.569 23.6361H168.123C167.811 23.6361 167.656 23.4803 167.656 23.169V7.94139C167.656 7.65058 167.811 7.50518 168.123 7.50518H170.801C171.112 7.50518 171.268 7.65058 171.268 7.94139V12.737H174.569C176.479 12.737 178.021 13.225 179.194 14.2007C180.366 15.1764 180.953 16.526 180.953 18.2488C180.953 20.0962 180.387 21.4562 179.255 22.3283C178.124 23.1999 176.562 23.6361 174.569 23.6361ZM171.268 15.6954V20.6465H173.946C176.188 20.6465 177.309 19.8266 177.309 18.1866C177.33 17.3358 177.06 16.707 176.5 16.3029C175.939 15.898 175.088 15.6954 173.946 15.6954H171.268ZM10.6435 4.63461L7.22267 15.1629H15.7841L12.364 4.63461H10.6435Z" fill="black"/>
</svg>
