<svg width="165" height="28" viewBox="0 0 165 28" fill="none" xmlns="http://www.w3.org/2000/svg">
<path d="M12.15 17.35H5.7L4.11 22H0L7.56 0.849999H10.59L18.15 22H13.83L12.15 17.35ZM6.75 14.05H11.25L9.69 9.37L9.06 6.07H8.91L8.28 9.4L6.75 14.05ZM19.8741 7H22.7241L23.1741 8.8H23.2941C23.8141 8.04 24.4241 7.48 25.1241 7.12C25.8441 6.76 26.7141 6.58 27.7341 6.58C29.6141 6.58 31.0241 7.18 31.9641 8.38C32.9041 9.56 33.3741 11.47 33.3741 14.11C33.3741 15.39 33.2241 16.55 32.9241 17.59C32.6241 18.61 32.1741 19.48 31.5741 20.2C30.9941 20.92 30.2741 21.47 29.4141 21.85C28.5741 22.23 27.6041 22.42 26.5041 22.42C25.8841 22.42 25.3741 22.37 24.9741 22.27C24.5741 22.19 24.1741 22.05 23.7741 21.85V28H19.8741V7ZM26.5641 9.88C25.8041 9.88 25.2041 10.07 24.7641 10.45C24.3441 10.83 24.0141 11.4 23.7741 12.16V18.4C24.0541 18.62 24.3541 18.8 24.6741 18.94C25.0141 19.06 25.4541 19.12 25.9941 19.12C27.1141 19.12 27.9541 18.73 28.5141 17.95C29.0741 17.15 29.3541 15.84 29.3541 14.02C29.3541 12.7 29.1341 11.68 28.6941 10.96C28.2541 10.24 27.5441 9.88 26.5641 9.88ZM41.0252 15.79H39.9752V22H36.0752V7H39.9752V13.39L40.9052 12.97L44.4152 7H48.5852L44.9552 12.7L43.4252 13.84L45.1052 15.01L49.1552 22H44.6852L41.0252 15.79ZM49.6521 14.5C49.6521 11.96 50.2721 10.01 51.5121 8.65C52.7521 7.27 54.4921 6.58 56.7321 6.58C57.9321 6.58 58.9721 6.77 59.8521 7.15C60.7321 7.53 61.4621 8.07 62.0421 8.77C62.6221 9.45 63.0521 10.28 63.3321 11.26C63.6321 12.24 63.7821 13.32 63.7821 14.5C63.7821 17.04 63.1621 19 61.9221 20.38C60.7021 21.74 58.9721 22.42 56.7321 22.42C55.5321 22.42 54.4921 22.23 53.6121 21.85C52.7321 21.47 51.9921 20.94 51.3921 20.26C50.8121 19.56 50.3721 18.72 50.0721 17.74C49.7921 16.76 49.6521 15.68 49.6521 14.5ZM53.6721 14.5C53.6721 15.16 53.7321 15.77 53.8521 16.33C53.9721 16.89 54.1521 17.38 54.3921 17.8C54.6321 18.22 54.9421 18.55 55.3221 18.79C55.7221 19.01 56.1921 19.12 56.7321 19.12C57.7521 19.12 58.5121 18.75 59.0121 18.01C59.5121 17.27 59.7621 16.1 59.7621 14.5C59.7621 13.12 59.5321 12.01 59.0721 11.17C58.6121 10.31 57.8321 9.88 56.7321 9.88C55.7721 9.88 55.0221 10.24 54.4821 10.96C53.9421 11.68 53.6721 12.86 53.6721 14.5ZM82.8654 11.11L83.3154 6.94H83.1354L81.8454 10.3L77.3754 18.13H76.0554L71.3454 10.27L70.0254 6.94H69.8754L70.4754 11.08V22H66.5754V0.999999H70.3254L75.9354 10.6L76.9254 13H77.0454L77.9454 10.54L83.2554 0.999999H86.9754V22H82.8654V11.11ZM102.48 20.71C101.88 21.19 101.06 21.6 100.02 21.94C98.9995 22.26 97.9095 22.42 96.7495 22.42C94.3295 22.42 92.5595 21.72 91.4395 20.32C90.3195 18.9 89.7595 16.96 89.7595 14.5C89.7595 11.86 90.3895 9.88 91.6495 8.56C92.9095 7.24 94.6795 6.58 96.9595 6.58C97.7195 6.58 98.4595 6.68 99.1795 6.88C99.8995 7.08 100.54 7.41 101.1 7.87C101.66 8.33 102.11 8.95 102.45 9.73C102.79 10.51 102.96 11.48 102.96 12.64C102.96 13.06 102.93 13.51 102.87 13.99C102.83 14.47 102.76 14.97 102.66 15.49H93.6595C93.7195 16.75 94.0395 17.7 94.6195 18.34C95.2195 18.98 96.1795 19.3 97.4995 19.3C98.3195 19.3 99.0495 19.18 99.6895 18.94C100.35 18.68 100.85 18.42 101.19 18.16L102.48 20.71ZM96.8995 9.7C95.8795 9.7 95.1195 10.01 94.6195 10.63C94.1395 11.23 93.8495 12.04 93.7495 13.06H99.3295C99.4095 11.98 99.2395 11.15 98.8195 10.57C98.4195 9.99 97.7795 9.7 96.8995 9.7ZM108.264 9.82C108.844 8.94 109.524 8.31 110.304 7.93C111.104 7.53 112.064 7.33 113.184 7.33C115.004 7.33 116.444 7.89 117.504 9.01C118.584 10.11 119.124 11.83 119.124 14.17C119.124 16.87 118.514 18.92 117.294 20.32C116.074 21.72 114.354 22.42 112.134 22.42C109.814 22.42 108.044 21.65 106.824 20.11C105.604 18.57 104.994 16.17 104.994 12.91C104.994 11.19 105.094 9.72 105.294 8.5C105.494 7.28 105.774 6.25 106.134 5.41C106.514 4.57 106.954 3.9 107.454 3.4C107.974 2.9 108.544 2.51 109.164 2.23C109.804 1.93 110.484 1.72 111.204 1.6C111.924 1.48 112.684 1.38 113.484 1.3C114.524 1.2 115.414 1.08 116.154 0.939999C116.894 0.779999 117.444 0.529999 117.804 0.189998L117.954 3.67C117.554 4.01 116.984 4.25 116.244 4.39C115.504 4.51 114.504 4.62 113.244 4.72C112.484 4.76 111.814 4.85 111.234 4.99C110.654 5.13 110.154 5.38 109.734 5.74C109.314 6.1 108.974 6.61 108.714 7.27C108.474 7.91 108.294 8.76 108.174 9.82H108.264ZM109.014 14.68C109.014 15.96 109.264 17.02 109.764 17.86C110.264 18.7 111.034 19.12 112.074 19.12C113.154 19.12 113.924 18.74 114.384 17.98C114.864 17.22 115.104 16.12 115.104 14.68C115.104 13.38 114.884 12.38 114.444 11.68C114.004 10.98 113.274 10.63 112.254 10.63C111.154 10.63 110.334 10.99 109.794 11.71C109.274 12.43 109.014 13.42 109.014 14.68ZM133.827 20.71C133.227 21.19 132.407 21.6 131.367 21.94C130.347 22.26 129.257 22.42 128.097 22.42C125.677 22.42 123.907 21.72 122.787 20.32C121.667 18.9 121.107 16.96 121.107 14.5C121.107 11.86 121.737 9.88 122.997 8.56C124.257 7.24 126.027 6.58 128.307 6.58C129.067 6.58 129.807 6.68 130.527 6.88C131.247 7.08 131.887 7.41 132.447 7.87C133.007 8.33 133.457 8.95 133.797 9.73C134.137 10.51 134.307 11.48 134.307 12.64C134.307 13.06 134.277 13.51 134.217 13.99C134.177 14.47 134.107 14.97 134.007 15.49H125.007C125.067 16.75 125.387 17.7 125.967 18.34C126.567 18.98 127.527 19.3 128.847 19.3C129.667 19.3 130.397 19.18 131.037 18.94C131.697 18.68 132.197 18.42 132.537 18.16L133.827 20.71ZM128.247 9.7C127.227 9.7 126.467 10.01 125.967 10.63C125.487 11.23 125.197 12.04 125.097 13.06H130.677C130.757 11.98 130.587 11.15 130.167 10.57C129.767 9.99 129.127 9.7 128.247 9.7ZM144.899 10.45H141.929C141.809 11.87 141.669 13.28 141.509 14.68C141.349 16.08 141.089 17.34 140.729 18.46C140.389 19.56 139.919 20.46 139.319 21.16C138.719 21.84 137.939 22.18 136.979 22.18C135.819 22.18 134.999 22.03 134.519 21.73L134.999 18.49C135.319 18.61 135.619 18.67 135.899 18.67C136.299 18.67 136.649 18.5 136.949 18.16C137.249 17.82 137.499 17.21 137.699 16.33C137.919 15.45 138.089 14.26 138.209 12.76C138.349 11.24 138.449 9.32 138.509 7H148.799V22H144.899V10.45ZM156.079 18.73C156.679 18.85 157.249 18.91 157.789 18.91C158.749 18.91 159.439 18.75 159.859 18.43C160.299 18.09 160.519 17.57 160.519 16.87C160.519 15.57 159.639 14.92 157.879 14.92C157.219 14.92 156.619 14.99 156.079 15.13V18.73ZM156.079 12.34C156.559 12.26 157.039 12.21 157.519 12.19C158.019 12.15 158.469 12.13 158.869 12.13C159.909 12.13 160.789 12.25 161.509 12.49C162.229 12.71 162.809 13.03 163.249 13.45C163.709 13.87 164.039 14.37 164.239 14.95C164.439 15.51 164.539 16.12 164.539 16.78C164.539 18.6 163.999 19.96 162.919 20.86C161.839 21.76 160.009 22.21 157.429 22.21C156.289 22.21 155.299 22.19 154.459 22.15C153.639 22.11 152.879 22.06 152.179 22V7H156.079V12.34Z" fill="white"/>
</svg>
