<svg width="54" height="44" viewBox="0 0 54 44" fill="none" xmlns="http://www.w3.org/2000/svg">
<path d="M39.5 8.25H7C5.3424 8.25 3.75269 8.90848 2.58058 10.0806C1.40848 11.2527 0.75 12.8424 0.75 14.5V37C0.75 37.8208 0.911661 38.6335 1.22575 39.3918C1.53984 40.1501 2.00022 40.8391 2.58058 41.4194C3.16095 41.9998 3.84994 42.4602 4.60823 42.7742C5.36651 43.0883 6.17924 43.25 7 43.25H39.5C40.3208 43.25 41.1335 43.0883 41.8918 42.7742C42.6501 42.4602 43.3391 41.9998 43.9194 41.4194C44.4998 40.8391 44.9602 40.1501 45.2742 39.3918C45.5883 38.6335 45.75 37.8208 45.75 37V14.5C45.75 12.8424 45.0915 11.2527 43.9194 10.0806C42.7473 8.90848 41.1576 8.25 39.5 8.25ZM7 10.75H39.5C40.4946 10.75 41.4484 11.1451 42.1516 11.8483C42.8549 12.5516 43.25 13.5054 43.25 14.5V15.75H3.25V14.5C3.25 13.5054 3.64509 12.5516 4.34835 11.8483C5.05161 11.1451 6.00544 10.75 7 10.75ZM39.5 40.75H7C6.00544 40.75 5.05161 40.3549 4.34835 39.6516C3.64509 38.9484 3.25 37.9946 3.25 37V18.25H43.25V37C43.25 37.9946 42.8549 38.9484 42.1516 39.6516C41.4484 40.3549 40.4946 40.75 39.5 40.75Z" fill="#1D1818"/>
<path d="M14.5 28.25H9.5C9.16848 28.25 8.85054 28.3817 8.61612 28.6161C8.3817 28.8505 8.25 29.1685 8.25 29.5V34.5C8.25 34.8315 8.3817 35.1495 8.61612 35.3839C8.85054 35.6183 9.16848 35.75 9.5 35.75H14.5C14.8315 35.75 15.1495 35.6183 15.3839 35.3839C15.6183 35.1495 15.75 34.8315 15.75 34.5V29.5C15.75 29.1685 15.6183 28.8505 15.3839 28.6161C15.1495 28.3817 14.8315 28.25 14.5 28.25ZM13.25 33.25H10.75V30.75H13.25V33.25Z" fill="#1D1818"/>
<path d="M47.0006 0.75H14.5006C13.4099 0.756584 12.3399 1.04849 11.3969 1.59672C10.454 2.14494 9.67094 2.93039 9.12559 3.875C9.03718 4.01278 8.9782 4.16735 8.95237 4.329C8.92654 4.49066 8.93442 4.65591 8.9755 4.81437C9.01659 4.97284 9.08999 5.1211 9.19111 5.24985C9.29223 5.37859 9.41887 5.48504 9.56309 5.5625C9.70087 5.65092 9.85544 5.70989 10.0171 5.73572C10.1787 5.76155 10.344 5.75367 10.5025 5.71259C10.6609 5.6715 10.8092 5.5981 10.9379 5.49698C11.0667 5.39586 11.1731 5.26922 11.2506 5.125C11.5799 4.55457 12.0537 4.08096 12.6242 3.7518C13.1948 3.42265 13.8419 3.24958 14.5006 3.25H47.0006C47.9952 3.25 48.949 3.64509 49.6522 4.34835C50.3555 5.05161 50.7506 6.00544 50.7506 7V29.5C50.751 30.1587 50.5779 30.8058 50.2488 31.3764C49.9196 31.9469 49.446 32.4207 48.8756 32.75C48.7314 32.8275 48.6047 32.9339 48.5036 33.0627C48.4025 33.1914 48.3291 33.3397 48.288 33.4981C48.2469 33.6566 48.239 33.8218 48.2649 33.9835C48.2907 34.1452 48.3497 34.2997 48.4381 34.4375C48.5156 34.5817 48.622 34.7084 48.7507 34.8095C48.8795 34.9106 49.0278 34.984 49.1862 35.0251C49.3447 35.0662 49.5099 35.074 49.6716 35.0482C49.8332 35.0224 49.9878 34.9634 50.1256 34.875C51.0702 34.3297 51.8557 33.5466 52.4039 32.6037C52.9521 31.6607 53.244 30.5907 53.2506 29.5V7C53.2506 5.3424 52.5921 3.75269 51.42 2.58058C50.2479 1.40848 48.6582 0.75 47.0006 0.75Z" fill="#1D1818"/>
</svg>
