<svg width="56" height="36" viewBox="0 0 56 36" fill="none" xmlns="http://www.w3.org/2000/svg">
<path d="M34.25 25.75H9.25C9.25 24.0924 8.59152 22.5027 7.41942 21.3306C6.24731 20.1585 4.6576 19.5 3 19.5V9.5C4.6576 9.5 6.24731 8.84152 7.41942 7.66942C8.59152 6.49731 9.25 4.9076 9.25 3.25H39.25C39.25 4.9076 39.9085 6.49731 41.0806 7.66942C42.2527 8.84152 43.8424 9.5 45.5 9.5V12C45.5 12.3315 45.6317 12.6495 45.8661 12.8839C46.1005 13.1183 46.4185 13.25 46.75 13.25C47.0815 13.25 47.3995 13.1183 47.6339 12.8839C47.8683 12.6495 48 12.3315 48 12V2C48 1.66848 47.8683 1.35054 47.6339 1.11612C47.3995 0.881696 47.0815 0.75 46.75 0.75H1.75C1.41848 0.75 1.10054 0.881696 0.866116 1.11612C0.631696 1.35054 0.5 1.66848 0.5 2V27C0.5 27.3315 0.631696 27.6495 0.866116 27.8839C1.10054 28.1183 1.41848 28.25 1.75 28.25H34.25C34.5815 28.25 34.8995 28.1183 35.1339 27.8839C35.3683 27.6495 35.5 27.3315 35.5 27C35.5 26.6685 35.3683 26.3505 35.1339 26.1161C34.8995 25.8817 34.5815 25.75 34.25 25.75ZM45.5 7C44.5054 7 43.5516 6.60491 42.8484 5.90165C42.1451 5.19839 41.75 4.24456 41.75 3.25H45.5V7ZM3 3.25H6.75C6.75 4.24456 6.35491 5.19839 5.65165 5.90165C4.94839 6.60491 3.99456 7 3 7V3.25ZM3 22C3.99456 22 4.94839 22.3951 5.65165 23.0983C6.35491 23.8016 6.75 24.7554 6.75 25.75H3V22Z" fill="#1D1818"/>
<path d="M46.75 15.75C41.75 15.75 38 17.875 38 20.75V30.75C38 33.625 41.75 35.75 46.75 35.75C51.75 35.75 55.5 33.625 55.5 30.75V20.75C55.5 17.875 51.75 15.75 46.75 15.75ZM53 25.75C53 26.75 50.5625 28.25 46.75 28.25C42.9375 28.25 40.5 26.75 40.5 25.75V24.3125C42.4306 25.3061 44.5793 25.8003 46.75 25.75C48.9207 25.8003 51.0694 25.3061 53 24.3125V25.75ZM46.75 18.25C50.5625 18.25 53 19.75 53 20.75C53 21.75 50.5625 23.25 46.75 23.25C42.9375 23.25 40.5 21.75 40.5 20.75C40.5 19.75 42.9375 18.25 46.75 18.25ZM46.75 33.25C42.9375 33.25 40.5 31.75 40.5 30.75V29.3125C42.4306 30.3061 44.5793 30.8003 46.75 30.75C48.9207 30.8003 51.0694 30.3061 53 29.3125V30.75C53 31.75 50.5625 33.25 46.75 33.25Z" fill="#1D1818"/>
<path d="M18 14.5C18 15.7361 18.3666 16.9445 19.0533 17.9723C19.7401 19.0001 20.7162 19.8012 21.8582 20.2742C23.0003 20.7473 24.2569 20.8711 25.4693 20.6299C26.6817 20.3887 27.7953 19.7935 28.6694 18.9194C29.5435 18.0453 30.1387 16.9317 30.3799 15.7193C30.6211 14.5069 30.4973 13.2503 30.0242 12.1082C29.5512 10.9662 28.7501 9.99007 27.7223 9.30331C26.6945 8.61656 25.4861 8.25 24.25 8.25C22.5924 8.25 21.0027 8.90848 19.8306 10.0806C18.6585 11.2527 18 12.8424 18 14.5V14.5ZM28 14.5C28 15.2417 27.7801 15.9667 27.368 16.5834C26.956 17.2001 26.3703 17.6807 25.6851 17.9645C24.9998 18.2484 24.2458 18.3226 23.5184 18.1779C22.791 18.0332 22.1228 17.6761 21.5983 17.1516C21.0739 16.6272 20.7167 15.959 20.5721 15.2316C20.4274 14.5042 20.5016 13.7502 20.7855 13.0649C21.0693 12.3797 21.5499 11.794 22.1666 11.382C22.7833 10.9699 23.5083 10.75 24.25 10.75C25.2446 10.75 26.1984 11.1451 26.9016 11.8483C27.6049 12.5516 28 13.5054 28 14.5Z" fill="#1D1818"/>
</svg>
