<svg width="42" height="54" viewBox="0 0 42 54" fill="none" xmlns="http://www.w3.org/2000/svg">
<path d="M28.4557 39.0833C28.1353 39.0833 27.8279 39.2106 27.6013 39.4372C27.3747 39.6638 27.2474 39.9712 27.2474 40.2917V41.5H3.08073V12.5H27.2474V13.7083C27.2474 14.0288 27.3747 14.3361 27.6013 14.5627C27.8279 14.7894 28.1353 14.9167 28.4557 14.9167C28.7762 14.9167 29.0835 14.7894 29.3102 14.5627C29.5368 14.3361 29.6641 14.0288 29.6641 13.7083V6.45833C29.6641 4.85598 29.0275 3.31926 27.8945 2.18623C26.7615 1.05319 25.2247 0.416664 23.6224 0.416664H6.70573C5.10338 0.416664 3.56666 1.05319 2.43363 2.18623C1.30059 3.31926 0.664063 4.85598 0.664062 6.45833V47.5417C0.664063 49.144 1.30059 50.6807 2.43363 51.8138C3.56666 52.9468 5.10338 53.5833 6.70573 53.5833H23.6224C25.2247 53.5833 26.7615 52.9468 27.8945 51.8138C29.0275 50.6807 29.6641 49.144 29.6641 47.5417V40.2917C29.6641 39.9712 29.5368 39.6638 29.3102 39.4372C29.0835 39.2106 28.7762 39.0833 28.4557 39.0833ZM6.70573 2.83333H23.6224C24.5838 2.83333 25.5058 3.21525 26.1857 3.89507C26.8655 4.57489 27.2474 5.49692 27.2474 6.45833V10.0833H3.08073V6.45833C3.08073 5.49692 3.46265 4.57489 4.14247 3.89507C4.82229 3.21525 5.74432 2.83333 6.70573 2.83333ZM23.6224 51.1667H6.70573C5.74432 51.1667 4.82229 50.7847 4.14247 50.1049C3.46265 49.4251 3.08073 48.5031 3.08073 47.5417V43.9167H27.2474V47.5417C27.2474 48.5031 26.8655 49.4251 26.1857 50.1049C25.5058 50.7847 24.5838 51.1667 23.6224 51.1667Z" fill="#1D1818"/>
<path d="M16.375 46.3333H13.9583C13.6379 46.3333 13.3305 46.4606 13.1039 46.6872C12.8773 46.9138 12.75 47.2212 12.75 47.5417C12.75 47.8621 12.8773 48.1695 13.1039 48.3961C13.3305 48.6227 13.6379 48.75 13.9583 48.75H16.375C16.6955 48.75 17.0028 48.6227 17.2294 48.3961C17.456 48.1695 17.5833 47.8621 17.5833 47.5417C17.5833 47.2212 17.456 46.9138 17.2294 46.6872C17.0028 46.4606 16.6955 46.3333 16.375 46.3333Z" fill="#1D1818"/>
<path d="M11.5365 7.66667H18.7865C19.1069 7.66667 19.4143 7.53936 19.6409 7.31275C19.8675 7.08615 19.9948 6.7788 19.9948 6.45833C19.9948 6.13786 19.8675 5.83052 19.6409 5.60391C19.4143 5.37731 19.1069 5.25 18.7865 5.25H11.5365C11.216 5.25 10.9086 5.37731 10.682 5.60391C10.4554 5.83052 10.3281 6.13786 10.3281 6.45833C10.3281 6.7788 10.4554 7.08615 10.682 7.31275C10.9086 7.53936 11.216 7.66667 11.5365 7.66667Z" fill="#1D1818"/>
<path d="M38.1224 17.3333H18.7891C17.8277 17.3333 16.9056 17.7152 16.2258 18.3951C15.546 19.0749 15.1641 19.9969 15.1641 20.9583V33.0417C15.1641 34.0031 15.546 34.9251 16.2258 35.6049C16.9056 36.2847 17.8277 36.6667 18.7891 36.6667H38.1224C39.0838 36.6667 40.0058 36.2847 40.6857 35.6049C41.3655 34.9251 41.7474 34.0031 41.7474 33.0417V20.9583C41.7474 19.9969 41.3655 19.0749 40.6857 18.3951C40.0058 17.7152 39.0838 17.3333 38.1224 17.3333ZM18.7891 19.75H38.1224C38.4429 19.75 38.7502 19.8773 38.9768 20.1039C39.2034 20.3305 39.3307 20.6379 39.3307 20.9583V22.1667H17.5807V20.9583C17.5807 20.6379 17.708 20.3305 17.9346 20.1039C18.1612 19.8773 18.4686 19.75 18.7891 19.75ZM38.1224 34.25H18.7891C18.4686 34.25 18.1612 34.1227 17.9346 33.8961C17.708 33.6695 17.5807 33.3621 17.5807 33.0417V24.5833H39.3307V33.0417C39.3307 33.3621 39.2034 33.6695 38.9768 33.8961C38.7502 34.1227 38.4429 34.25 38.1224 34.25Z" fill="#1D1818"/>
<path d="M23.625 29.4167H21.2083C20.8879 29.4167 20.5805 29.544 20.3539 29.7706C20.1273 29.9972 20 30.3045 20 30.625C20 30.9455 20.1273 31.2528 20.3539 31.4794C20.5805 31.706 20.8879 31.8333 21.2083 31.8333H23.625C23.9455 31.8333 24.2528 31.706 24.4794 31.4794C24.706 31.2528 24.8333 30.9455 24.8333 30.625C24.8333 30.3045 24.706 29.9972 24.4794 29.7706C24.2528 29.544 23.9455 29.4167 23.625 29.4167Z" fill="#1D1818"/>
</svg>
