<svg width="4" height="5" viewBox="0 0 4 5" fill="none" xmlns="http://www.w3.org/2000/svg">
<path d="M3.21872 2.47911C3.21422 2.42777 3.1936 2.37919 3.15979 2.34033L1.21345 0.0898748H1.2134C1.17183 0.038666 1.11124 0.00654804 1.04552 0.000905603C0.979802 -0.00477963 0.914589 0.0164764 0.864823 0.0597944C0.815056 0.10307 0.785017 0.164759 0.781581 0.23061C0.778144 0.296499 0.801607 0.360945 0.846579 0.40918L2.65422 2.49998L0.846579 4.59078C0.801607 4.63906 0.778144 4.70351 0.781581 4.76939C0.785017 4.83524 0.815055 4.89688 0.864823 4.94021C0.914589 4.98352 0.9798 5.00478 1.04552 4.99909C1.11124 4.99341 1.17183 4.96133 1.2134 4.91013L3.15975 2.65967H3.15979C3.20307 2.60994 3.22432 2.54478 3.21872 2.4791V2.47911Z" fill="black"/>
</svg>
