<svg width="11" height="21" viewBox="0 0 11 21" fill="none" xmlns="http://www.w3.org/2000/svg">
<path d="M10.9907 10.1203C10.9578 9.89265 10.8542 9.68104 10.6943 9.51577L1.93256 0.388979H1.9323C1.73775 0.158515 1.45686 0.0184574 1.15561 0.00165106C0.854613 -0.0149017 0.559981 0.0935841 0.341244 0.301127C0.122495 0.508925 -0.00101073 0.797448 6.25038e-06 1.0992C0.00102493 1.40071 0.126569 1.68847 0.34659 1.89473L8.3899 10.2686L0.34659 18.6424V18.6426C0.126569 18.8487 0.00102324 19.1367 6.25038e-06 19.4382C-0.0010123 19.7397 0.122495 20.0285 0.341244 20.2362C0.559994 20.4438 0.854626 20.5523 1.15561 20.5355C1.45687 20.5189 1.73775 20.3789 1.9323 20.1484L10.694 11.0216H10.6943C10.9247 10.782 11.034 10.4504 10.9907 10.1204V10.1203Z" fill="white"/>
</svg>
