<svg width="35" height="35" viewBox="0 0 35 35" fill="none" xmlns="http://www.w3.org/2000/svg">
<path d="M33.3594 30.0781H24.6094V20.7812H33.3594V30.0781ZM25.7031 28.9844H32.2656V21.875H25.7031V28.9844Z" fill="#384685"/>
<path d="M33.3594 24.6094H24.6094V25.7031H33.3594V24.6094Z" fill="#384685"/>
<path d="M30.0781 26.25H27.8906V27.3438H30.0781V26.25Z" fill="#384685"/>
<path d="M30.0781 22.4219H27.8906V23.5156H30.0781V22.4219Z" fill="#384685"/>
<path d="M23.5156 30.0781H22.4219V26.25H2.73438V30.0781H1.64062V25.1562H23.5156V30.0781Z" fill="#384685"/>
<path d="M23.5156 26.25H1.64062V21.875H23.5156V26.25ZM2.73438 25.1562H22.4219V22.9688H2.73438V25.1562Z" fill="#384685"/>
<path d="M22.9688 22.9688H2.1875V20.9508C2.19181 20.0369 2.55676 19.1617 3.20298 18.5155C3.84919 17.8693 4.72441 17.5043 5.63828 17.5H19.518C20.4323 17.5029 21.3083 17.8674 21.9549 18.5139C22.6014 19.1604 22.9659 20.0365 22.9688 20.9508V22.9688ZM3.28125 21.875H21.875V20.9508C21.8736 20.3261 21.6248 19.7274 21.183 19.2857C20.7413 18.844 20.1426 18.5952 19.518 18.5938H5.63828C5.1008 18.5989 4.58216 18.7925 4.17266 19.1406C3.89789 19.3562 3.67511 19.6309 3.52082 19.9442C3.36652 20.2575 3.28464 20.6015 3.28125 20.9508V21.875Z" fill="#384685"/>
<path d="M12.0312 18.5938H5.46875V15.8594C5.46875 15.4243 5.6416 15.007 5.94928 14.6993C6.25695 14.3916 6.67425 14.2188 7.10938 14.2188H10.3906C10.8257 14.2188 11.243 14.3916 11.5507 14.6993C11.8584 15.007 12.0312 15.4243 12.0312 15.8594V18.5938ZM6.5625 17.5H10.9375V15.8594C10.9375 15.7143 10.8799 15.5752 10.7773 15.4727C10.6748 15.3701 10.5357 15.3125 10.3906 15.3125H7.10938C6.96433 15.3125 6.82524 15.3701 6.72268 15.4727C6.62012 15.5752 6.5625 15.7143 6.5625 15.8594V17.5Z" fill="#384685"/>
<path d="M19.6875 18.5938H13.125V15.8594C13.125 15.4243 13.2979 15.007 13.6055 14.6993C13.9132 14.3916 14.3305 14.2188 14.7656 14.2188H18.0469C18.482 14.2188 18.8993 14.3916 19.207 14.6993C19.5146 15.007 19.6875 15.4243 19.6875 15.8594V18.5938ZM14.2188 17.5H18.5938V15.8594C18.5938 15.7143 18.5361 15.5752 18.4336 15.4727C18.331 15.3701 18.1919 15.3125 18.0469 15.3125H14.7656C14.6206 15.3125 14.4815 15.3701 14.3789 15.4727C14.2764 15.5752 14.2188 15.7143 14.2188 15.8594V17.5Z" fill="#384685"/>
<path d="M21.875 19.8352L20.9836 19.1406C20.5741 18.7925 20.0554 18.5989 19.518 18.5938H5.63828C5.1008 18.5989 4.58216 18.7925 4.17266 19.1406L3.28125 19.8352V11.4844H21.875V19.8352ZM5.63828 17.5H19.518C19.9505 17.4994 20.3792 17.5811 20.7812 17.7406V12.5781H4.375V17.7406C4.77704 17.5811 5.20574 17.4994 5.63828 17.5Z" fill="#384685"/>
<path d="M4.375 10.3906H3.28125V12.5781H4.375V10.3906Z" fill="#384685"/>
<path d="M21.875 10.3906H20.7812V12.5781H21.875V10.3906Z" fill="#384685"/>
<path d="M28.9844 21.875C28.4042 21.875 27.8478 21.6445 27.4376 21.2343C27.0273 20.8241 26.7969 20.2677 26.7969 19.6875V19.2719C26.7966 18.9845 26.853 18.7 26.9628 18.4344C27.0726 18.1688 27.2336 17.9275 27.4367 17.7242L28.9844 16.182L30.532 17.7242C30.7351 17.9275 30.8961 18.1688 31.0059 18.4344C31.1157 18.7 31.1721 18.9845 31.1719 19.2719V19.6875C31.1719 20.2677 30.9414 20.8241 30.5312 21.2343C30.1209 21.6445 29.5645 21.875 28.9844 21.875ZM28.9844 17.7242L28.2133 18.5008C28.0079 18.705 27.8918 18.9823 27.8906 19.2719V19.6875C27.8906 19.9776 28.0059 20.2558 28.211 20.4609C28.4161 20.666 28.6943 20.7813 28.9844 20.7813C29.2745 20.7813 29.5527 20.666 29.7578 20.4609C29.9629 20.2558 30.0781 19.9776 30.0781 19.6875V19.2719C30.0769 18.9823 29.9609 18.705 29.7555 18.5008L28.9844 17.7242Z" fill="#384685"/>
<path d="M29.5312 15.3125H28.4375V17.5H29.5312V15.3125Z" fill="#384685"/>
<path d="M32.3365 16.4062H25.6318L26.3154 10.9375H31.6529L32.3365 16.4062ZM26.8678 15.3125H31.1006L30.6904 12.0312H27.2779L26.8678 15.3125Z" fill="#384685"/>
</svg>
