<svg width="35" height="35" viewBox="0 0 35 35" fill="none" xmlns="http://www.w3.org/2000/svg">
<path d="M6.5625 31.7188H3.28125V3.28125H6.5625V31.7188ZM4.375 30.625H5.46875V4.375H4.375V30.625Z" fill="#384685"/>
<path d="M31.7188 31.7188H28.4375V3.28125H31.7188V31.7188ZM29.5312 30.625H30.625V4.375H29.5312V30.625Z" fill="#384685"/>
<path d="M29.5312 28.9844H5.46875V24.0625H29.5312V28.9844ZM6.5625 27.8906H28.4375V25.1562H6.5625V27.8906Z" fill="#384685"/>
<path d="M11.5992 25.1562H7.54141C6.9917 25.1562 6.46452 24.9379 6.07582 24.5492C5.68712 24.1605 5.46875 23.6333 5.46875 23.0836V22.8539C5.46875 22.3042 5.68712 21.777 6.07582 21.3883C6.46452 20.9996 6.9917 20.7812 7.54141 20.7812H11.5992C12.1489 20.7812 12.6761 20.9996 13.0648 21.3883C13.4535 21.777 13.6719 22.3042 13.6719 22.8539V23.0836C13.6719 23.6333 13.4535 24.1605 13.0648 24.5492C12.6761 24.9379 12.1489 25.1562 11.5992 25.1562ZM7.54141 21.875C7.41285 21.875 7.28556 21.9003 7.1668 21.9495C7.04803 21.9987 6.94011 22.0708 6.84921 22.1617C6.75832 22.2526 6.68621 22.3605 6.63701 22.4793C6.58782 22.5981 6.5625 22.7254 6.5625 22.8539V23.0836C6.5625 23.3432 6.66563 23.5922 6.84921 23.7758C7.0328 23.9594 7.28178 24.0625 7.54141 24.0625H11.5992C11.8588 24.0625 12.1078 23.9594 12.2914 23.7758C12.475 23.5922 12.5781 23.3432 12.5781 23.0836V22.8539C12.5781 22.5943 12.475 22.3453 12.2914 22.1617C12.1078 21.9781 11.8588 21.875 11.5992 21.875H7.54141Z" fill="#384685"/>
<path d="M29.5312 25.1562H15.8594V20.7812H25.7031C26.7184 20.7812 27.6921 21.1846 28.41 21.9025C29.1279 22.6204 29.5312 23.5941 29.5312 24.6094V25.1562ZM16.9531 24.0625H28.3828C28.2567 23.4449 27.9212 22.8898 27.4328 22.4912C26.9445 22.0925 26.3335 21.8749 25.7031 21.875H16.9531V24.0625Z" fill="#384685"/>
<path d="M16.9531 25.1562H12.5781V20.2344H16.9531V25.1562ZM13.6719 24.0625H15.8594V21.3281H13.6719V24.0625Z" fill="#384685"/>
<path d="M29.5312 15.3125H5.46875V10.3906H29.5312V15.3125ZM6.5625 14.2188H28.4375V11.4844H6.5625V14.2188Z" fill="#384685"/>
<path d="M11.5992 11.4844H7.54141C6.9917 11.4844 6.46452 11.266 6.07582 10.8773C5.68712 10.4886 5.46875 9.96142 5.46875 9.41172V9.18203C5.46875 8.63233 5.68712 8.10514 6.07582 7.71644C6.46452 7.32774 6.9917 7.10938 7.54141 7.10938H11.5992C12.1489 7.10938 12.6761 7.32774 13.0648 7.71644C13.4535 8.10514 13.6719 8.63233 13.6719 9.18203V9.41172C13.6719 9.96142 13.4535 10.4886 13.0648 10.8773C12.6761 11.266 12.1489 11.4844 11.5992 11.4844ZM7.54141 8.20312C7.41285 8.20312 7.28556 8.22844 7.1668 8.27764C7.04803 8.32683 6.94011 8.39894 6.84921 8.48984C6.75832 8.58074 6.68621 8.68865 6.63701 8.80742C6.58782 8.92619 6.5625 9.05348 6.5625 9.18203V9.41172C6.5625 9.67134 6.66563 9.92033 6.84921 10.1039C7.0328 10.2875 7.28178 10.3906 7.54141 10.3906H11.5992C11.8588 10.3906 12.1078 10.2875 12.2914 10.1039C12.475 9.92033 12.5781 9.67134 12.5781 9.41172V9.18203C12.5781 8.92241 12.475 8.67342 12.2914 8.48984C12.1078 8.30626 11.8588 8.20312 11.5992 8.20312H7.54141Z" fill="#384685"/>
<path d="M29.5312 11.4844H15.8594V7.10938H25.7031C26.7184 7.10938 27.6921 7.51269 28.41 8.23061C29.1279 8.94852 29.5312 9.92222 29.5312 10.9375V11.4844ZM16.9531 10.3906H28.3828C28.2567 9.773 27.9212 9.21791 27.4328 8.81929C26.9445 8.42066 26.3335 8.203 25.7031 8.20312H16.9531V10.3906Z" fill="#384685"/>
<path d="M16.9531 11.4844H12.5781V6.5625H16.9531V11.4844ZM13.6719 10.3906H15.8594V7.65625H13.6719V10.3906Z" fill="#384685"/>
</svg>
