<svg width="54" height="30" viewBox="0 0 54 30" fill="none" xmlns="http://www.w3.org/2000/svg">
<path d="M3.86771 25.7983H6.11644C6.61612 27.8498 8.82121 29.4082 11.4615 29.4082C14.1013 29.4082 16.3064 27.8584 16.8065 25.7983H36.8054C37.3051 27.8498 39.5101 29.4082 42.1504 29.4082C44.7902 29.4082 46.9953 27.8584 47.4955 25.7983H48.3212C51.0915 25.7983 53.3511 23.9351 53.3511 21.6508V19.1158C53.3511 18.408 53.1229 17.7275 52.7101 17.1184C52.6773 17.0557 52.6341 17.0018 52.5905 16.9482C52.5468 16.8855 52.5036 16.8226 52.46 16.76L47.1586 10.4448C46.2133 9.32494 44.6707 8.65312 43.0197 8.65312H33.1339V3.18893C33.1339 1.43328 31.3957 0 29.2665 0L3.85649 0.000374899C1.72729 -0.0082478 0 1.41599 0 3.17165V22.6102C0 24.3655 1.73823 25.7988 3.86743 25.7988L3.86771 25.7983ZM11.461 27.617C9.64691 27.617 8.18011 26.4075 8.18011 24.9116C8.18011 23.4158 9.64691 22.2063 11.461 22.2063C13.2642 22.2063 14.731 23.4158 14.7419 24.9026V24.9116C14.7419 26.3984 13.2643 27.6169 11.461 27.6169V27.617ZM42.139 27.617C40.3358 27.617 38.8581 26.4075 38.8581 24.9116C38.8581 23.4158 40.3249 22.2063 42.139 22.2063C43.9422 22.2063 45.409 23.4158 45.4199 24.9026V24.9116V24.9206C45.4199 26.3984 43.9531 27.6169 42.139 27.6169V27.617ZM45.3654 11.4568L49.6237 16.536H42.7474V10.445H43.0188C43.9532 10.4446 44.833 10.821 45.3654 11.4568ZM40.5746 10.4446V17.4316C40.5746 17.9242 41.0633 18.3272 41.6608 18.3272H51.0033C51.1119 18.5781 51.1769 18.8469 51.1769 19.1157V21.6507C51.1769 22.9497 49.8952 24.0066 48.3198 24.0066H47.4941C46.9835 21.9551 44.7894 20.4147 42.1491 20.4147C39.5093 20.4147 37.3146 21.9644 36.804 24.0066H32.9258C33.0453 23.7288 33.1213 23.4334 33.1213 23.1199L33.1222 10.4446L40.5746 10.4446ZM2.17266 3.1712C2.17266 2.40079 2.93332 1.78294 3.8563 1.78294H29.2547C30.189 1.78294 30.9492 2.41015 30.9492 3.18023V23.1198C30.9492 23.6124 30.4714 24.0064 29.874 24.0064H16.8052C16.2946 21.955 14.1005 20.4145 11.4602 20.4145C8.82036 20.4145 6.62575 21.9643 6.11513 24.0064H3.86686C2.93253 24.0064 2.17193 23.3792 2.17193 22.6089L2.17266 3.1712Z" fill="white"/>
</svg>
