<svg width="35" height="35" viewBox="0 0 35 35" fill="none" xmlns="http://www.w3.org/2000/svg">
<path d="M1.34615 35H0L0.0201924 33.4923L1.48077 26.9231H11.4423V35H10.0961V28.2692H2.55769L1.34615 33.7144V35Z" fill="#384685"/>
<path d="M12.1154 28.2692H1.34615V24.951L0.0740384 16.4904C0.0259111 16.3149 0.00101906 16.1339 0 15.9519V14.8077C0.000351042 14.4086 0.118967 14.0185 0.340866 13.6868C0.562765 13.3551 0.877995 13.0965 1.24674 12.9438C1.61549 12.7912 2.02121 12.7512 2.41267 12.8289C2.80413 12.9067 3.16376 13.0987 3.44615 13.3808C3.82493 13.7591 4.03798 14.2723 4.03845 14.8077V15.9048C4.02825 15.9695 4.02825 16.0353 4.03845 16.1V16.201L5.24999 24.1837L10.0961 24.2308C10.6317 24.2308 11.1453 24.4435 11.5239 24.8222C11.9026 25.2009 12.1154 25.7145 12.1154 26.25V28.2692ZM2.6923 26.9231H10.7692V26.25C10.7692 26.0715 10.6983 25.9003 10.5721 25.7741C10.4458 25.6478 10.2746 25.5769 10.0961 25.5769L4.13268 25.5365L2.75288 16.4567C2.70514 16.2766 2.68027 16.0912 2.67884 15.9048V14.8077C2.67884 14.6292 2.60793 14.458 2.4817 14.3318C2.35547 14.2055 2.18427 14.1346 2.00576 14.1346C1.82725 14.1346 1.65605 14.2055 1.52983 14.3318C1.4036 14.458 1.33269 14.6292 1.33269 14.8077V15.9519C1.32607 16.0195 1.33062 16.0877 1.34615 16.1538V16.2548L2.6923 24.9038V26.9231Z" fill="#384685"/>
<path d="M33.6537 35V33.7144L32.4422 28.2692H24.9038V35H23.5576V26.9231H33.5191L34.9999 33.6404V35H33.6537Z" fill="#384685"/>
<path d="M33.654 28.2692H22.8848V26.25C22.8848 25.7145 23.0975 25.2009 23.4762 24.8222C23.8549 24.4435 24.3685 24.2308 24.904 24.2308L29.7165 24.1971L30.9482 16.1202C30.9697 16.0573 30.9811 15.9914 30.9819 15.925V14.8077C30.9803 14.5419 31.0313 14.2785 31.1317 14.0325C31.2322 13.7865 31.3803 13.5627 31.5674 13.374C31.8509 13.0962 32.21 12.908 32.5998 12.8331C32.9896 12.7582 33.3928 12.7998 33.7591 12.9528C34.1254 13.1057 34.4384 13.3633 34.6592 13.6932C34.8799 14.0231 34.9985 14.4107 35.0001 14.8077V15.9519C34.9991 16.1339 34.9742 16.3149 34.9261 16.4904L33.654 24.951V28.2692ZM24.2309 26.9231H32.3078V24.8029L33.654 16.1538C33.6643 16.0892 33.6643 16.0233 33.654 15.9586V14.8077C33.654 14.6292 33.5831 14.458 33.4568 14.3317C33.3306 14.2055 33.1594 14.1346 32.9809 14.1346C32.8024 14.1346 32.6312 14.2055 32.505 14.3317C32.3787 14.458 32.3078 14.6292 32.3078 14.8077V15.9048C32.3068 16.0912 32.2819 16.2767 32.2338 16.4567L30.8876 25.5298L24.904 25.5769C24.7255 25.5769 24.5543 25.6478 24.4281 25.7741C24.3018 25.9003 24.2309 26.0715 24.2309 26.25V26.9231Z" fill="#384685"/>
<path d="M26.25 22.8846H8.75V18.8461H26.25V22.8846ZM10.0962 21.5385H24.9038V20.1923H10.0962V21.5385Z" fill="#384685"/>
<path d="M28.9422 18.8461H6.05762V20.1923H28.9422V18.8461Z" fill="#384685"/>
<path d="M7.40362 35H6.05747V34.3269C6.01838 32.1581 6.47898 30.0094 7.40362 28.0471C8.35913 26.014 8.82039 23.7838 8.74977 21.5385V20.8654H10.0959V21.5385C10.1654 23.9642 9.66757 26.3727 8.64208 28.5721C7.78973 30.3688 7.3658 32.3387 7.40362 34.3269V35Z" fill="#384685"/>
<path d="M28.9423 35H27.5962V34.3269C27.634 32.3387 27.21 30.3688 26.3577 28.5721C25.3322 26.3727 24.8344 23.9642 24.9039 21.5385V20.8654H26.25V21.5385C26.1794 23.7838 26.6406 26.014 27.5962 28.0471C28.5208 30.0094 28.9814 32.1581 28.9423 34.3269V35Z" fill="#384685"/>
<path d="M22.8844 7.40385H12.1152V6.73077C12.1152 5.83822 12.4698 4.98222 13.1009 4.35109C13.7321 3.71995 14.5881 3.36539 15.4806 3.36539H19.5191C20.4116 3.36539 21.2676 3.71995 21.8987 4.35109C22.5299 4.98222 22.8844 5.83822 22.8844 6.73077V7.40385ZM13.5758 6.05769H21.4239C21.2846 5.66384 21.0266 5.32287 20.6855 5.08177C20.3443 4.84067 19.9368 4.71132 19.5191 4.71154H15.4806C15.2144 4.71089 14.9507 4.76288 14.7046 4.86454C14.4586 4.96619 14.2351 5.11549 14.047 5.30385C13.8379 5.51863 13.6773 5.77567 13.5758 6.05769Z" fill="#384685"/>
<path d="M17.4997 9.42308C16.9642 9.42308 16.4506 9.21034 16.0719 8.83166C15.6932 8.45298 15.4805 7.93938 15.4805 7.40385C15.4809 7.04662 15.5762 6.69591 15.7564 6.3875L15.9516 6.05769H19.0478L19.243 6.3875C19.4232 6.69591 19.5185 7.04662 19.5189 7.40385C19.5189 7.93938 19.3062 8.45298 18.9275 8.83166C18.5488 9.21034 18.0352 9.42308 17.4997 9.42308ZM16.8266 7.40385C16.8266 7.58236 16.8975 7.75356 17.0238 7.87979C17.15 8.00601 17.3212 8.07692 17.4997 8.07692C17.6782 8.07692 17.8494 8.00601 17.9756 7.87979C18.1019 7.75356 18.1728 7.58236 18.1728 7.40385H16.8266Z" fill="#384685"/>
<path d="M18.1728 0H16.8267V4.71154H18.1728V0Z" fill="#384685"/>
</svg>
