<svg width="27" height="35" viewBox="0 0 27 35" fill="none" xmlns="http://www.w3.org/2000/svg">
<path d="M14.087 31.6957H0V0H14.087V31.6957ZM1.17391 30.5217H12.913V1.17391H1.17391V30.5217Z" fill="#384685"/>
<path d="M27 31.6957H12.9131V0H27V31.6957ZM14.087 30.5217H25.8261V1.17391H14.087V30.5217Z" fill="#384685"/>
<path d="M14.087 31.6956H0V25.8261H14.087V31.6956ZM1.17391 30.5217H12.913V27H1.17391V30.5217Z" fill="#384685"/>
<path d="M27 31.6956H12.9131V25.8261H27V31.6956ZM14.087 30.5217H25.8261V27H14.087V30.5217Z" fill="#384685"/>
<path d="M14.087 27H0V21.1304H14.087V27ZM1.17391 25.8261H12.913V22.3043H1.17391V25.8261Z" fill="#384685"/>
<path d="M27 27H12.9131V21.1304H27V27ZM14.087 25.8261H25.8261V22.3043H14.087V25.8261Z" fill="#384685"/>
<path d="M11.7393 11.7391H10.5654V14.6739H11.7393V11.7391Z" fill="#384685"/>
<path d="M16.4347 11.7391H15.2607V14.6739H16.4347V11.7391Z" fill="#384685"/>
<path d="M25.826 34.0435H1.17383V30.5217H25.826V34.0435ZM2.34774 32.8696H24.6521V31.6957H2.34774V32.8696Z" fill="#384685"/>
<path d="M21.1305 23.4783H18.7827V24.6522H21.1305V23.4783Z" fill="#384685"/>
<path d="M21.1305 28.1739H18.7827V29.3478H21.1305V28.1739Z" fill="#384685"/>
<path d="M8.21745 28.1739H5.86963V29.3478H8.21745V28.1739Z" fill="#384685"/>
<path d="M8.21745 23.4783H5.86963V24.6522H8.21745V23.4783Z" fill="#384685"/>
</svg>
