<svg width="39" height="21" viewBox="0 0 39 21" fill="none" xmlns="http://www.w3.org/2000/svg">
<path d="M4.59375 21H1.96875C1.44661 21 0.945846 20.7926 0.576634 20.4234C0.207421 20.0542 0 19.5534 0 19.0312V7.21875C0 6.69661 0.207421 6.19585 0.576634 5.82663C0.945846 5.45742 1.44661 5.25 1.96875 5.25H4.59375C5.11589 5.25 5.61665 5.45742 5.98587 5.82663C6.35508 6.19585 6.5625 6.69661 6.5625 7.21875V19.0312C6.5625 19.5534 6.35508 20.0542 5.98587 20.4234C5.61665 20.7926 5.11589 21 4.59375 21ZM1.96875 6.5625C1.7947 6.5625 1.62778 6.63164 1.50471 6.75471C1.38164 6.87778 1.3125 7.0447 1.3125 7.21875V19.0312C1.3125 19.2053 1.38164 19.3722 1.50471 19.4953C1.62778 19.6184 1.7947 19.6875 1.96875 19.6875H4.59375C4.7678 19.6875 4.93472 19.6184 5.05779 19.4953C5.18086 19.3722 5.25 19.2053 5.25 19.0312V7.21875C5.25 7.0447 5.18086 6.87778 5.05779 6.75471C4.93472 6.63164 4.7678 6.5625 4.59375 6.5625H1.96875Z" fill="#384685"/>
<path d="M36.0938 21H33.4688C32.9466 21 32.4458 20.7926 32.0766 20.4234C31.7074 20.0542 31.5 19.5534 31.5 19.0312V7.21875C31.5 6.69661 31.7074 6.19585 32.0766 5.82663C32.4458 5.45742 32.9466 5.25 33.4688 5.25H36.0938C36.6159 5.25 37.1167 5.45742 37.4859 5.82663C37.8551 6.19585 38.0625 6.69661 38.0625 7.21875V19.0312C38.0625 19.5534 37.8551 20.0542 37.4859 20.4234C37.1167 20.7926 36.6159 21 36.0938 21ZM33.4688 6.5625C33.2947 6.5625 33.1278 6.63164 33.0047 6.75471C32.8816 6.87778 32.8125 7.0447 32.8125 7.21875V19.0312C32.8125 19.2053 32.8816 19.3722 33.0047 19.4953C33.1278 19.6184 33.2947 19.6875 33.4688 19.6875H36.0938C36.2678 19.6875 36.4347 19.6184 36.5578 19.4953C36.6809 19.3722 36.75 19.2053 36.75 19.0312V7.21875C36.75 7.0447 36.6809 6.87778 36.5578 6.75471C36.4347 6.63164 36.2678 6.5625 36.0938 6.5625H33.4688Z" fill="#384685"/>
<path d="M30.8438 21H7.21875C6.69661 21 6.19585 20.7926 5.82663 20.4234C5.45742 20.0542 5.25 19.5534 5.25 19.0312V16.4062C5.25 15.8841 5.45742 15.3833 5.82663 15.0141C6.19585 14.6449 6.69661 14.4375 7.21875 14.4375H30.8438C31.3659 14.4375 31.8667 14.6449 32.2359 15.0141C32.6051 15.3833 32.8125 15.8841 32.8125 16.4062V19.0312C32.8125 19.5534 32.6051 20.0542 32.2359 20.4234C31.8667 20.7926 31.3659 21 30.8438 21ZM7.21875 15.75C7.0447 15.75 6.87778 15.8191 6.75471 15.9422C6.63164 16.0653 6.5625 16.2322 6.5625 16.4062V19.0312C6.5625 19.2053 6.63164 19.3722 6.75471 19.4953C6.87778 19.6184 7.0447 19.6875 7.21875 19.6875H30.8438C31.0178 19.6875 31.1847 19.6184 31.3078 19.4953C31.4309 19.3722 31.5 19.2053 31.5 19.0312V16.4062C31.5 16.2322 31.4309 16.0653 31.3078 15.9422C31.1847 15.8191 31.0178 15.75 30.8438 15.75H7.21875Z" fill="#384685"/>
<path d="M19.6875 15.75H5.25V13.125C5.25 12.2548 5.5957 11.4202 6.21106 10.8048C6.82641 10.1895 7.66101 9.84375 8.53125 9.84375H16.4062C17.2765 9.84375 18.1111 10.1895 18.7264 10.8048C19.3418 11.4202 19.6875 12.2548 19.6875 13.125V15.75ZM6.5625 14.4375H18.375V13.125C18.375 12.6029 18.1676 12.1021 17.7984 11.7329C17.4292 11.3637 16.9284 11.1562 16.4062 11.1562H8.53125C8.0091 11.1562 7.50835 11.3637 7.13913 11.7329C6.76992 12.1021 6.5625 12.6029 6.5625 13.125V14.4375Z" fill="#384685"/>
<path d="M32.8125 15.75H18.375V13.125C18.375 12.2548 18.7207 11.4202 19.3361 10.8048C19.9514 10.1895 20.786 9.84375 21.6562 9.84375H29.5312C30.4015 9.84375 31.2361 10.1895 31.8514 10.8048C32.4668 11.4202 32.8125 12.2548 32.8125 13.125V15.75ZM19.6875 14.4375H31.5V13.125C31.5 12.6029 31.2926 12.1021 30.9234 11.7329C30.5542 11.3637 30.0534 11.1562 29.5312 11.1562H21.6562C21.1341 11.1562 20.6333 11.3637 20.2641 11.7329C19.8949 12.1021 19.6875 12.6029 19.6875 13.125V14.4375Z" fill="#384685"/>
<path d="M19.6875 13.125H18.375C18.375 12.6029 18.1676 12.1021 17.7984 11.7329C17.4292 11.3637 16.9284 11.1562 16.4062 11.1562H8.53125C8.00911 11.1562 7.50835 11.3637 7.13913 11.7329C6.76992 12.1021 6.5625 12.6029 6.5625 13.125H5.25V7.21875C5.25 7.0447 5.18086 6.87778 5.05779 6.75471C4.93472 6.63164 4.7678 6.5625 4.59375 6.5625H3.9375V3.28125C3.9375 2.41101 4.2832 1.57641 4.89856 0.961056C5.51391 0.345702 6.34851 0 7.21875 0H16.4062C17.2765 0 18.1111 0.345702 18.7264 0.961056C19.3418 1.57641 19.6875 2.41101 19.6875 3.28125V13.125ZM8.53125 9.84375H16.4062C17.1162 9.84375 17.807 10.074 18.375 10.5V3.28125C18.375 2.7591 18.1676 2.25835 17.7984 1.88913C17.4292 1.51992 16.9284 1.3125 16.4062 1.3125H7.21875C6.6966 1.3125 6.19585 1.51992 5.82663 1.88913C5.45742 2.25835 5.25 2.7591 5.25 3.28125V5.36156C5.63401 5.49733 5.96646 5.74886 6.20153 6.08148C6.43659 6.4141 6.56271 6.81145 6.5625 7.21875V10.5C7.13047 10.074 7.82129 9.84375 8.53125 9.84375Z" fill="#384685"/>
<path d="M32.8125 13.125H31.5C31.5 12.6029 31.2926 12.1021 30.9234 11.7329C30.5542 11.3637 30.0534 11.1562 29.5312 11.1562H21.6562C21.1341 11.1562 20.6333 11.3637 20.2641 11.7329C19.8949 12.1021 19.6875 12.6029 19.6875 13.125H18.375V3.28125C18.375 2.41101 18.7207 1.57641 19.3361 0.961056C19.9514 0.345702 20.786 0 21.6562 0H30.8438C31.714 0 32.5486 0.345702 33.1639 0.961056C33.7793 1.57641 34.125 2.41101 34.125 3.28125V6.5625H33.4688C33.2947 6.5625 33.1278 6.63164 33.0047 6.75471C32.8816 6.87778 32.8125 7.0447 32.8125 7.21875V13.125ZM21.6562 9.84375H29.5312C30.2412 9.84375 30.932 10.074 31.5 10.5V7.21875C31.4998 6.81145 31.6259 6.4141 31.861 6.08148C32.096 5.74886 32.4285 5.49733 32.8125 5.36156V3.28125C32.8125 2.7591 32.6051 2.25835 32.2359 1.88913C31.8667 1.51992 31.3659 1.3125 30.8438 1.3125H21.6562C21.1341 1.3125 20.6333 1.51992 20.2641 1.88913C19.8949 2.25835 19.6875 2.7591 19.6875 3.28125V10.5C20.2555 10.074 20.9463 9.84375 21.6562 9.84375Z" fill="#384685"/>
<path d="M19.6875 12.4688H18.375V15.75H19.6875V12.4688Z" fill="#384685"/>
<path d="M8.85938 6.5625C9.40303 6.5625 9.84375 6.12178 9.84375 5.57812C9.84375 5.03447 9.40303 4.59375 8.85938 4.59375C8.31572 4.59375 7.875 5.03447 7.875 5.57812C7.875 6.12178 8.31572 6.5625 8.85938 6.5625Z" fill="#384685"/>
<path d="M14.7656 6.5625C15.3093 6.5625 15.75 6.12178 15.75 5.57812C15.75 5.03447 15.3093 4.59375 14.7656 4.59375C14.222 4.59375 13.7812 5.03447 13.7812 5.57812C13.7812 6.12178 14.222 6.5625 14.7656 6.5625Z" fill="#384685"/>
<path d="M23.2969 6.5625C23.8405 6.5625 24.2812 6.12178 24.2812 5.57812C24.2812 5.03447 23.8405 4.59375 23.2969 4.59375C22.7532 4.59375 22.3125 5.03447 22.3125 5.57812C22.3125 6.12178 22.7532 6.5625 23.2969 6.5625Z" fill="#384685"/>
<path d="M29.2031 6.5625C29.7468 6.5625 30.1875 6.12178 30.1875 5.57812C30.1875 5.03447 29.7468 4.59375 29.2031 4.59375C28.6595 4.59375 28.2188 5.03447 28.2188 5.57812C28.2188 6.12178 28.6595 6.5625 29.2031 6.5625Z" fill="#384685"/>
</svg>
