<svg width="18" height="18" viewBox="0 0 18 18" fill="none" xmlns="http://www.w3.org/2000/svg">
<path d="M17.1251 17.75C16.9652 17.75 16.8053 17.689 16.6832 17.5669L9.32056 10.2042C9.07642 9.96008 9.07642 9.56458 9.32056 9.32043C9.5647 9.07629 9.96021 9.07629 10.2043 9.32043L17.567 16.6831C17.8112 16.9272 17.8112 17.3228 17.567 17.5669C17.4449 17.689 17.285 17.75 17.1251 17.75Z" fill="#384685"/>
<path d="M6.08078 11.9095C4.58786 11.9095 3.09433 11.341 1.95786 10.2042C-0.315704 7.93066 -0.315704 4.23163 1.95786 1.95807C3.05893 0.856689 4.52316 0.25 6.08078 0.25C7.63901 0.25 9.10324 0.856689 10.2043 1.95807C12.4779 4.23163 12.4779 7.93066 10.2043 10.2042C9.06784 11.341 7.57431 11.9095 6.08078 11.9095ZM6.08078 1.5C4.85764 1.5 3.70712 1.97638 2.84164 2.84186C1.05576 4.62805 1.05576 7.53424 2.84164 9.32043C4.62814 11.1069 7.53525 11.1057 9.32053 9.32043C11.1064 7.53424 11.1064 4.62805 9.32053 2.84186C8.45505 1.97638 7.30453 1.5 6.08078 1.5Z" fill="#384685"/>
</svg>
