<svg width="29" height="29" viewBox="0 0 29 29" fill="none" xmlns="http://www.w3.org/2000/svg">
<path d="M28.1719 28.7188H0.828125V13.9531H28.1719V28.7188ZM1.92188 27.625H27.0781V15.0469H1.92188V27.625Z" fill="#384685"/>
<path d="M25.9844 5.75H16.1406V3.77031L18.3281 2.67656V0.28125H23.7969V2.67656L25.9844 3.77031V5.75ZM17.2344 4.65625H24.8906V4.44844L22.7031 3.35469V1.375H19.4219V3.35469L17.2344 4.44844V4.65625Z" fill="#384685"/>
<path d="M25.9844 25.9844H16.1406V18.875H25.9844V25.9844ZM17.2344 24.8906H24.8906V19.9688H17.2344V24.8906Z" fill="#384685"/>
<path d="M21.3359 17.7812C21.789 17.7812 22.1562 17.414 22.1562 16.9609C22.1562 16.5079 21.789 16.1406 21.3359 16.1406C20.8829 16.1406 20.5156 16.5079 20.5156 16.9609C20.5156 17.414 20.8829 17.7812 21.3359 17.7812Z" fill="#384685"/>
<path d="M24.0703 17.7812C24.5234 17.7812 24.8906 17.414 24.8906 16.9609C24.8906 16.5079 24.5234 16.1406 24.0703 16.1406C23.6173 16.1406 23.25 16.5079 23.25 16.9609C23.25 17.414 23.6173 17.7812 24.0703 17.7812Z" fill="#384685"/>
<path d="M19.4219 15.0469H18.3281V12.3125H20.5156V13.4062H19.4219V15.0469Z" fill="#384685"/>
<path d="M23.7969 15.0469H22.7031V13.4062H21.6094V12.3125H23.7969V15.0469Z" fill="#384685"/>
<path d="M14.5 26.5312H3.01562V16.6875H14.5V26.5312ZM4.10938 25.4375H13.4062V17.7812H4.10938V25.4375Z" fill="#384685"/>
<path d="M14.5 21.0625H3.01562V22.1562H14.5V21.0625Z" fill="#384685"/>
<path d="M9.57812 18.875H7.39062V19.9688H9.57812V18.875Z" fill="#384685"/>
<path d="M9.57812 23.25H7.39062V24.3438H9.57812V23.25Z" fill="#384685"/>
<path d="M22.1562 20.5156H19.9688V21.6094H22.1562V20.5156Z" fill="#384685"/>
<path d="M13.4062 1.92188H9.57812V3.01562H13.4062V1.92188Z" fill="#384685"/>
<path d="M10.6719 1.92188H3.5625V3.01562H10.6719V1.92188Z" fill="#384685"/>
<path d="M4.65625 1.92188H1.92188V3.01562H4.65625V1.92188Z" fill="#384685"/>
<path d="M4.65625 0.828125H3.5625V9.03125H4.65625V0.828125Z" fill="#384685"/>
<path d="M10.6719 0.828125H9.57812V6.29688H10.6719V0.828125Z" fill="#384685"/>
<path d="M4.10938 11.2188C3.78489 11.2188 3.46769 11.1225 3.19789 10.9423C2.92809 10.762 2.71781 10.5058 2.59364 10.206C2.46946 9.90618 2.43697 9.57631 2.50027 9.25806C2.56358 8.93981 2.71983 8.64747 2.94928 8.41803C3.17872 8.18858 3.47106 8.03233 3.78931 7.96902C4.10756 7.90572 4.43743 7.93821 4.73722 8.06239C5.037 8.18656 5.29323 8.39684 5.47351 8.66664C5.65378 8.93644 5.75 9.25364 5.75 9.57813C5.75 10.0132 5.57715 10.4305 5.26947 10.7382C4.9618 11.0459 4.5445 11.2188 4.10938 11.2188ZM4.10938 9.03125C4.00121 9.03125 3.89548 9.06332 3.80555 9.12342C3.71562 9.18351 3.64552 9.26892 3.60413 9.36885C3.56274 9.46877 3.55191 9.57873 3.57301 9.68482C3.59411 9.7909 3.6462 9.88834 3.72268 9.96483C3.79916 10.0413 3.8966 10.0934 4.00269 10.1145C4.10877 10.1356 4.21873 10.1248 4.31866 10.0834C4.41858 10.042 4.50399 9.97189 4.56409 9.88195C4.62418 9.79202 4.65625 9.68629 4.65625 9.57813C4.65625 9.43309 4.59863 9.29399 4.49607 9.19143C4.39352 9.08887 4.25442 9.03125 4.10938 9.03125Z" fill="#384685"/>
<path d="M10.125 11.7656C9.47603 11.7656 8.84164 11.5732 8.30204 11.2126C7.76244 10.8521 7.34187 10.3396 7.09352 9.74006C6.84517 9.14049 6.78019 8.48074 6.9068 7.84424C7.03341 7.20774 7.34592 6.62307 7.80481 6.16418C8.2637 5.70529 8.84836 5.39278 9.48486 5.26617C10.1214 5.13957 10.7811 5.20455 11.3807 5.4529C11.9803 5.70125 12.4927 6.12181 12.8533 6.66141C13.2138 7.20101 13.4063 7.83541 13.4063 8.48438C13.4063 9.35462 13.0605 10.1892 12.4452 10.8046C11.8298 11.4199 10.9952 11.7656 10.125 11.7656ZM10.125 6.29688C9.69236 6.29688 9.26942 6.42517 8.90969 6.66554C8.54996 6.9059 8.26958 7.24754 8.10402 7.64726C7.93845 8.04697 7.89513 8.4868 7.97953 8.91114C8.06394 9.33547 8.27228 9.72524 8.57821 10.0312C8.88413 10.3371 9.27391 10.5454 9.69824 10.6298C10.1226 10.7142 10.5624 10.6709 10.9621 10.5054C11.3618 10.3398 11.7035 10.0594 11.9438 9.69969C12.1842 9.33995 12.3125 8.91702 12.3125 8.48438C12.3125 7.90422 12.082 7.34782 11.6718 6.93758C11.2616 6.52734 10.7052 6.29688 10.125 6.29688Z" fill="#384685"/>
<path d="M28.7188 13.9531H0.28125V15.0469H28.7188V13.9531Z" fill="#384685"/>
</svg>
