<svg width="35" height="35" viewBox="0 0 35 35" fill="none" xmlns="http://www.w3.org/2000/svg">
<path d="M16.0617 30.0781H15.1102C14.5841 30.0767 14.08 29.8671 13.708 29.4951C13.3361 29.1231 13.1264 28.619 13.125 28.093V22.2195C13.1264 21.6935 13.3361 21.1894 13.708 20.8174C14.08 20.4454 14.5841 20.2358 15.1102 20.2344H16.0617C16.2221 20.2355 16.3819 20.2557 16.5375 20.2945C16.9688 20.399 17.3524 20.6458 17.6263 20.9951C17.9001 21.3444 18.0483 21.7757 18.0469 22.2195V28.093C18.0454 28.619 17.8358 29.1231 17.4638 29.4951C17.0919 29.8671 16.5878 30.0767 16.0617 30.0781ZM15.1102 21.3281C14.9931 21.3281 14.8772 21.3512 14.769 21.396C14.6609 21.4408 14.5626 21.5064 14.4798 21.5892C14.3971 21.672 14.3314 21.7703 14.2866 21.8784C14.2418 21.9866 14.2187 22.1025 14.2187 22.2195V28.093C14.2187 28.21 14.2418 28.3259 14.2866 28.4341C14.3314 28.5422 14.3971 28.6405 14.4798 28.7233C14.5626 28.8061 14.6609 28.8717 14.769 28.9165C14.8772 28.9613 14.9931 28.9844 15.1102 28.9844H16.0617C16.1788 28.9844 16.2947 28.9613 16.4028 28.9165C16.511 28.8717 16.6093 28.8061 16.692 28.7233C16.7748 28.6405 16.8405 28.5422 16.8853 28.4341C16.9301 28.3259 16.9531 28.21 16.9531 28.093V22.2195C16.9528 22.0205 16.8859 21.8272 16.763 21.6706C16.6401 21.5141 16.4683 21.4031 16.275 21.3555C16.2041 21.3478 16.1326 21.3478 16.0617 21.3555L15.1102 21.3281Z" fill="#384685"/>
<path d="M31.3742 30.0781H30.4227C29.8966 30.0767 29.3925 29.8671 29.0205 29.4951C28.6486 29.1231 28.439 28.619 28.4375 28.093V22.2195C28.4361 21.7757 28.5843 21.3444 28.8581 20.9951C29.132 20.6458 29.5155 20.399 29.9469 20.2945C30.1025 20.2557 30.2622 20.2355 30.4227 20.2344H31.3742C31.9003 20.2358 32.4044 20.4454 32.7764 20.8174C33.1483 21.1894 33.3579 21.6935 33.3594 22.2195V28.093C33.3579 28.619 33.1483 29.1231 32.7764 29.4951C32.4044 29.8671 31.9003 30.0767 31.3742 30.0781ZM30.4227 21.3281C30.3518 21.3204 30.2803 21.3204 30.2094 21.3281C30.0115 21.3768 29.8362 21.4918 29.7128 21.654C29.5894 21.8162 29.5254 22.0158 29.5313 22.2195V28.093C29.5313 28.21 29.5543 28.3259 29.5991 28.4341C29.6439 28.5422 29.7096 28.6405 29.7923 28.7233C29.8751 28.8061 29.9734 28.8717 30.0815 28.9165C30.1897 28.9613 30.3056 28.9844 30.4227 28.9844H31.3742C31.6106 28.9844 31.8374 28.8905 32.0045 28.7233C32.1717 28.5561 32.2656 28.3294 32.2656 28.093V22.2195C32.2656 22.1025 32.2426 21.9866 32.1978 21.8784C32.153 21.7703 32.0873 21.672 32.0045 21.5892C31.9218 21.5064 31.8235 21.4408 31.7154 21.396C31.6072 21.3512 31.4913 21.3281 31.3742 21.3281H30.4227Z" fill="#384685"/>
<path d="M12.0312 27.3438H1.64062V20.7812H12.0312V27.3438ZM2.73438 26.25H10.9375V21.875H2.73438V26.25Z" fill="#384685"/>
<path d="M12.0312 26.25H10.9375V30.0781H12.0312V26.25Z" fill="#384685"/>
<path d="M2.73438 26.25H1.64062V30.0781H2.73438V26.25Z" fill="#384685"/>
<path d="M27.8906 30.0781H18.5938C18.1586 30.0781 17.7413 29.9053 17.4337 29.5976C17.126 29.2899 16.9531 28.8726 16.9531 28.4375V25.1562H29.5312V28.4375C29.5312 28.8726 29.3584 29.2899 29.0507 29.5976C28.743 29.9053 28.3257 30.0781 27.8906 30.0781ZM18.0469 26.25V28.4375C18.0469 28.5825 18.1045 28.7216 18.2071 28.8242C18.3096 28.9268 18.4487 28.9844 18.5938 28.9844H27.8906C28.0357 28.9844 28.1748 28.9268 28.2773 28.8242C28.3799 28.7216 28.4375 28.5825 28.4375 28.4375V26.25H18.0469Z" fill="#384685"/>
<path d="M29.5312 26.25H16.9531V24.6094C16.9531 23.8842 17.2412 23.1887 17.754 22.6759C18.2668 22.1631 18.9623 21.875 19.6875 21.875H26.7969C27.5221 21.875 28.2176 22.1631 28.7304 22.6759C29.2432 23.1887 29.5312 23.8842 29.5312 24.6094V26.25ZM18.0469 25.1562H28.4375V24.6094C28.4375 24.1743 28.2646 23.757 27.957 23.4493C27.6493 23.1416 27.232 22.9688 26.7969 22.9688H19.6875C19.2524 22.9688 18.8351 23.1416 18.5274 23.4493C18.2197 23.757 18.0469 24.1743 18.0469 24.6094V25.1562Z" fill="#384685"/>
<path d="M29.5312 24.6094H28.4375C28.4375 24.1743 28.2646 23.757 27.957 23.4493C27.6493 23.1416 27.232 22.9688 26.7969 22.9688H19.6875C19.2524 22.9688 18.8351 23.1416 18.5274 23.4493C18.2197 23.757 18.0469 24.1743 18.0469 24.6094H16.9531V22.2195C16.9528 22.0205 16.8859 21.8272 16.763 21.6706C16.6401 21.514 16.4683 21.4031 16.275 21.3555L15.8594 21.257V16.9531C15.8594 15.9378 16.2627 14.9641 16.9806 14.2462C17.6985 13.5283 18.6722 13.125 19.6875 13.125H26.7969C27.8122 13.125 28.7859 13.5283 29.5038 14.2462C30.2217 14.9641 30.625 15.9378 30.625 16.9531V21.257L30.2094 21.3555C30.0161 21.4031 29.8443 21.514 29.7214 21.6706C29.5985 21.8272 29.5316 22.0205 29.5312 22.2195V24.6094ZM19.6875 21.875H26.7969C27.3885 21.875 27.9642 22.0669 28.4375 22.4219V22.2195C28.436 21.8515 28.5376 21.4904 28.731 21.1772C28.9243 20.864 29.2015 20.6112 29.5312 20.4477V16.9531C29.5312 16.2279 29.2432 15.5324 28.7304 15.0196C28.2176 14.5068 27.5221 14.2188 26.7969 14.2188H19.6875C18.9623 14.2188 18.2668 14.5068 17.754 15.0196C17.2412 15.5324 16.9531 16.2279 16.9531 16.9531V20.4477C17.2828 20.6112 17.5601 20.864 17.7534 21.1772C17.9468 21.4904 18.0484 21.8515 18.0469 22.2195V22.4219C18.5202 22.0669 19.0959 21.875 19.6875 21.875Z" fill="#384685"/>
<path d="M8.20312 23.5156H5.46875V24.6094H8.20312V23.5156Z" fill="#384685"/>
<path d="M8.61309 21.875H5.0584L3.64746 16.9531H10.024L8.61309 21.875ZM5.87871 20.7812H7.79277L8.56934 18.0469H5.10215L5.87871 20.7812Z" fill="#384685"/>
<path d="M6.83594 18.0469C6.6963 18.0459 6.5571 18.0312 6.42031 18.0031C5.39529 17.8286 4.46433 17.299 3.79045 16.5072C3.11657 15.7153 2.74273 14.7116 2.73438 13.6719V13.125H3.28125C4.29884 13.1197 5.28597 13.472 6.07031 14.1203L6.27266 14.2789V14.5359C6.26927 15.2017 6.46547 15.8531 6.83594 16.4062C7.2128 15.857 7.4166 15.2075 7.42109 14.5414V14.2844L7.62344 14.1258C8.40124 13.4803 9.37986 13.1264 10.3906 13.125H10.9375V13.6719C10.9414 14.73 10.5646 15.7542 9.87579 16.5574C9.18701 17.3607 8.23226 17.8893 7.18594 18.0469C7.06956 18.0585 6.95232 18.0585 6.83594 18.0469ZM8.50391 14.793C8.46373 15.4477 8.27682 16.0851 7.95703 16.6578C8.43982 16.4367 8.86173 16.1017 9.18655 15.6817C9.51136 15.2616 9.72938 14.769 9.82187 14.2461C9.34663 14.3288 8.89615 14.5176 8.50391 14.7984V14.793ZM3.86094 14.2461C3.95987 14.7666 4.18034 15.2563 4.50441 15.6754C4.82848 16.0945 5.24696 16.4311 5.72578 16.6578C5.40753 16.0844 5.22073 15.4474 5.17891 14.793C4.78569 14.516 4.33527 14.331 3.86094 14.2516V14.2461Z" fill="#384685"/>
<path d="M6.83615 17.9977L6.44787 17.6148C6.3549 17.5164 6.26194 17.418 6.17444 17.3141C5.47265 16.4666 5.11183 15.3881 5.16239 14.289C5.21295 13.1898 5.67126 12.149 6.44787 11.3695L6.83615 10.9867L7.22444 11.3695C7.63583 11.7785 7.9618 12.2652 8.18337 12.8012C8.40494 13.3373 8.51769 13.9121 8.51506 14.4922V14.5195C8.51197 15.5342 8.15625 16.5163 7.50881 17.2977C7.41037 17.418 7.3174 17.5164 7.22444 17.6148L6.83615 17.9977ZM6.83615 12.6055C6.45523 13.1609 6.25136 13.8187 6.25136 14.4922C6.25136 15.1657 6.45523 15.8235 6.83615 16.3789C7.21301 15.8297 7.41682 15.1802 7.42131 14.5141H7.96819H7.42131C7.42922 13.8325 7.2247 13.1655 6.83615 12.6055Z" fill="#384685"/>
<path d="M14.2188 10.9375H13.125V24.0625H14.2188V10.9375Z" fill="#384685"/>
<path d="M18.1016 12.0312H9.24219L9.89297 4.92188H17.4508L18.1016 12.0312ZM10.4453 10.9375H16.8984L16.4555 6.01562H10.8883L10.4453 10.9375Z" fill="#384685"/>
</svg>
