<svg width="16" height="17" viewBox="0 0 16 17" fill="none" xmlns="http://www.w3.org/2000/svg">
<path d="M5.50383 0.000849603C5.48605 0.00191672 5.47102 0.00405102 5.45588 0.00618519L5.45913 0.00571092C5.43701 0.00831946 5.41874 0.0115209 5.40048 0.0157893L5.4042 0.0147221C5.39723 0.0157893 5.39447 0.0162635 5.39182 0.0173307L5.39555 0.0162635C5.37512 0.0210063 5.35949 0.0258678 5.34387 0.0310847L5.3482 0.0300176C5.34063 0.031559 5.33798 0.0326261 5.33474 0.033219L5.33906 0.0321519C5.33366 0.0336933 5.33317 0.0342861 5.33209 0.0347604L5.33582 0.033219C5.31695 0.0400959 5.30241 0.0454315 5.28895 0.0518344L5.29267 0.0502929C5.28354 0.0539685 5.27813 0.056103 5.27332 0.0582371L5.27705 0.0566957C5.26143 0.0641655 5.24965 0.0699755 5.23775 0.0768525L5.241 0.0753111C5.23126 0.0800539 5.22537 0.0832553 5.21948 0.0870495L5.22273 0.0855081C5.21035 0.0929779 5.20122 0.0987879 5.19208 0.105191L5.19424 0.104124C5.18403 0.111001 5.17598 0.116336 5.1678 0.122146L5.16937 0.121079L5.16564 0.123688C5.1624 0.126296 5.16083 0.126889 5.15975 0.12843L5.16131 0.127363L0.246615 3.76436C0.0963865 3.8764 0.000599954 4.05224 0 4.2499V16.3923V16.3928C0 16.728 0.275699 17 0.61546 17C0.754391 17 0.883108 16.9544 0.985863 16.8779L0.9843 16.8789L5.53841 13.5091L10.0925 16.8789C10.1017 16.8858 10.113 16.8933 10.1249 16.9008L10.1275 16.9023C10.127 16.9018 10.1275 16.9023 10.1286 16.9028L10.1301 16.9038C10.1404 16.9107 10.1544 16.9182 10.1679 16.9257L10.1711 16.9272C10.1738 16.9287 10.1792 16.9319 10.1851 16.9347L10.1883 16.9362C10.1953 16.9399 10.2061 16.9447 10.2168 16.9495L10.2205 16.951C10.2253 16.9536 10.2345 16.9568 10.2431 16.9606L10.2474 16.9622C10.2501 16.9632 10.2577 16.9659 10.2646 16.968L10.269 16.9691C10.277 16.9723 10.29 16.9765 10.3028 16.9802L10.3072 16.9813C10.3131 16.9828 10.3239 16.9849 10.3346 16.9871L10.3383 16.9876C10.3415 16.9886 10.3491 16.9902 10.3566 16.9912L10.3603 16.9917C10.3722 16.9938 10.3877 16.9954 10.4039 16.997L10.4061 16.9975C10.4093 16.998 10.4152 16.998 10.4206 16.9986H10.4222C10.4308 16.9991 10.4411 16.9996 10.4518 16.9996H10.4522H10.4657C10.4765 16.9996 10.4867 16.9992 10.4974 16.9986H10.4959C10.5034 16.9975 10.5082 16.997 10.5136 16.9964L10.5104 16.9969C10.5254 16.9959 10.5389 16.9948 10.5519 16.9932L10.5486 16.9937C10.5621 16.9916 10.5723 16.99 10.582 16.9879L10.5783 16.9884C10.5928 16.9858 10.6031 16.9836 10.6139 16.9809L10.6096 16.982C10.6219 16.9788 10.63 16.9762 10.638 16.9734L10.6337 16.9745C10.6504 16.9698 10.6628 16.966 10.6746 16.9623L10.6702 16.9634C10.6826 16.9591 10.6907 16.9559 10.6987 16.9522L10.695 16.9538C10.7085 16.9484 10.7176 16.9447 10.7267 16.9405L10.723 16.942C10.7365 16.9356 10.7456 16.9309 10.7547 16.9255L10.7515 16.9271C10.766 16.9196 10.7773 16.9133 10.7886 16.9063L10.786 16.9079C10.7919 16.9042 10.7957 16.901 10.7999 16.8983L10.7984 16.8993C10.8118 16.8914 10.822 16.8845 10.8322 16.8775L10.8307 16.8786L15.7534 13.2355C15.9036 13.1235 16 12.9476 16 12.7495V12.749V0.60659C15.9995 0.271393 15.7243 0 15.3845 0C15.378 0 15.3722 0 15.3657 0.000474278H15.3668C15.2343 0.00414982 15.1126 0.0493257 15.0141 0.1226L15.0157 0.121533L10.4616 3.4908L5.90747 0.121533C5.90423 0.118924 5.89882 0.115723 5.89353 0.112521L5.89089 0.11098C5.88332 0.105644 5.87478 0.0992414 5.86505 0.0934317L5.8624 0.0918903C5.857 0.0882147 5.84846 0.0833533 5.84029 0.0786105L5.83704 0.0770691C5.83055 0.0733935 5.82094 0.0680576 5.81121 0.0633152L5.80796 0.0617738C5.80532 0.0607066 5.79883 0.0575054 5.79234 0.0548968L5.78861 0.0533554C5.77948 0.0486126 5.76602 0.043277 5.75256 0.0379414L5.74823 0.0364C5.75147 0.0374672 5.75039 0.0368743 5.74931 0.0368743L5.74558 0.0353329C5.74607 0.0353329 5.74294 0.0342658 5.73909 0.0337915L5.73477 0.0327244C5.72563 0.029523 5.71217 0.0252546 5.69811 0.020986L5.69379 0.0199188C5.68513 0.0173103 5.67167 0.0145832 5.65881 0.0119746L5.65509 0.0115004C5.65509 0.0115004 5.65136 0.0104332 5.64704 0.00995896L5.64331 0.00948468C5.64655 0.00995896 5.64487 0.00995896 5.64439 0.00948468L5.64067 0.00901041C5.62769 0.00687614 5.6111 0.00533486 5.5938 0.00367481H5.59163C5.59211 0.00367481 5.58899 0.00320057 5.58574 0.0026077L5.5825 0.00213342H5.58033H5.57817C5.57661 0.00165914 5.57228 0.00165914 5.56796 0.0010663L5.56531 0.000592021C5.55834 0.000117742 5.55077 0.000117742 5.5432 0.000117742C5.53563 0.000117742 5.52757 0.000117742 5.52 0.000592021H5.52108H5.51303H5.5039H5.50438L5.50383 0.000849603ZM6.15366 1.82171L9.8463 4.55368V15.1781L6.15366 12.4462V1.82171ZM4.92286 1.82231V12.4461L1.23022 15.1781V4.55427L4.92286 1.82231ZM14.7689 1.82231V12.4461L11.0762 15.1781V4.55427L14.7689 1.82231Z" fill="#384685"/>
</svg>
