<svg width="30" height="14" viewBox="0 0 30 14" fill="none" xmlns="http://www.w3.org/2000/svg">
<path d="M15.0195 0.000393821C15.002 -0.000327381 14.9844 -8.70011e-05 14.9671 0.0013554C14.7624 0.0152982 14.5856 0.159536 14.5182 0.367237L13.3891 3.85466L9.95258 3.93038V3.93062C9.73541 3.93471 9.54458 4.0864 9.47735 4.30828C9.41012 4.52993 9.48127 4.77321 9.65455 4.91384L12.3946 7.14348L11.4 10.6775C11.3376 10.8999 11.4132 11.1405 11.5881 11.2773C11.7629 11.4141 11.9993 11.4172 12.1774 11.2853L15.0004 9.17649L17.8224 11.2853C18.0005 11.4182 18.2373 11.4153 18.4129 11.2785C18.5883 11.1415 18.6636 10.9004 18.6007 10.6775L17.6062 7.14348L20.3453 4.91384C20.5185 4.77321 20.5897 4.52993 20.5225 4.30829C20.4552 4.0864 20.2644 3.93471 20.0472 3.93063L16.6085 3.8549L15.4816 0.36748V0.367239C15.4125 0.154491 15.2293 0.00881121 15.0195 0.000398516L15.0195 0.000393821ZM15.0003 2.21637L15.7644 4.57537H15.7646C15.8346 4.79029 16.0215 4.93597 16.2336 4.94125L18.5614 4.9927L16.7076 6.50187V6.50211C16.538 6.6401 16.4664 6.87641 16.5277 7.09517L17.2009 9.48999L15.2905 8.0618C15.1154 7.93102 14.8832 7.93102 14.7083 8.0618L12.7988 9.48783L13.4721 7.09517C13.5335 6.87665 13.4621 6.64034 13.2932 6.50211L11.4394 4.99294L13.7643 4.94149V4.94125C13.9773 4.93741 14.1656 4.79125 14.2363 4.57537L15.0003 2.21637ZM4.72824 4.33979C4.50437 4.3309 4.30129 4.47994 4.22783 4.70687L3.30696 7.54977L0.501117 7.61179L0.501348 7.61155C0.283716 7.61564 0.0924212 7.76733 0.0249617 7.98921C-0.0422671 8.21134 0.0293515 8.45462 0.203085 8.59501L2.43991 10.4124L1.6262 13.2942C1.5629 13.5173 1.63868 13.7589 1.81473 13.8959C1.99077 14.0327 2.2285 14.0349 2.40664 13.901L4.71118 12.1824L7.01477 13.901H7.01454C7.19266 14.0332 7.42924 14.0301 7.60437 13.8935C7.77949 13.757 7.85527 13.5166 7.79289 13.2942L6.98037 10.4124L9.21813 8.59501C9.39187 8.45462 9.46349 8.21134 9.39626 7.98921C9.3288 7.76732 9.1375 7.61564 8.91987 7.61155L6.11308 7.54953L5.19127 4.70663V4.70687C5.12219 4.49364 4.93852 4.34796 4.72828 4.33979L4.72824 4.33979ZM25.3079 4.33979C25.0841 4.3309 24.8812 4.47994 24.8078 4.70687L23.8859 7.54977L21.0801 7.61179V7.61155C20.8627 7.61612 20.6716 7.76781 20.6046 7.98969C20.5376 8.21157 20.6093 8.45462 20.783 8.59501L23.0187 10.4124L22.2062 13.2942C22.1429 13.5173 22.2184 13.7589 22.3945 13.8959C22.5705 14.0327 22.8082 14.0349 22.9864 13.901L25.29 12.1824L27.5936 13.901H27.5933C27.7715 14.0332 28.008 14.0301 28.1831 13.8935C28.3583 13.757 28.434 13.5166 28.3717 13.2942L27.5589 10.4124L29.7967 8.595H29.7969C29.9706 8.45462 30.0423 8.21157 29.975 7.98969C29.908 7.7678 29.7172 7.61612 29.4996 7.61155L26.6916 7.54953L25.7698 4.70663L25.77 4.70687C25.7012 4.49412 25.5177 4.34844 25.308 4.33979L25.3079 4.33979ZM4.70991 6.55263L5.26692 8.27C5.33739 8.48468 5.52475 8.63012 5.73684 8.63492L7.4319 8.67266L6.08153 9.77173C5.91195 9.90996 5.84033 10.1465 5.90155 10.365L6.3918 12.1046L5.00192 11.0675L5.00215 11.0677C4.8268 10.9364 4.59416 10.9364 4.4188 11.0677L3.02709 12.1067L3.51941 10.365C3.5804 10.1463 3.50832 9.90971 3.33828 9.77172L1.98696 8.67266L3.68203 8.63492C3.89504 8.63107 4.08333 8.48539 4.15403 8.27L4.70991 6.55263ZM25.2896 6.55263L25.8466 8.27C25.9173 8.48468 26.1044 8.63012 26.3168 8.63492L28.0118 8.67266L26.6615 9.77173H26.6612C26.4916 9.90996 26.42 10.1465 26.4815 10.365L26.9717 12.1046L25.5818 11.0675V11.0677C25.4067 10.9367 25.1739 10.9367 24.9987 11.0677L23.607 12.1067L24.0993 10.365H24.0991C24.1603 10.1463 24.088 9.90971 23.9182 9.77172L22.5669 8.67266L24.262 8.63492H24.2617C24.4747 8.63107 24.663 8.48539 24.7337 8.27L25.2896 6.55263Z" fill="black"/>
</svg>
