<svg width="31" height="25" viewBox="0 0 31 25" fill="none" xmlns="http://www.w3.org/2000/svg">
<path d="M10.1552 24.0517H0V0H10.1552V24.0517ZM1.06897 22.9828H9.08621V1.06897H1.06897V22.9828Z" fill="#384685"/>
<path d="M21.914 24.0517H9.08643V0H21.914V24.0517ZM10.1554 22.9828H20.845V1.06897H10.1554V22.9828Z" fill="#384685"/>
<path d="M19.7758 13.3621H11.2241V2.13794H19.7758V13.3621ZM12.2931 12.2931H18.7069V3.2069H12.2931V12.2931Z" fill="#384685"/>
<path d="M21.914 24.0517H9.08643V18.7069H21.914V24.0517ZM10.1554 22.9828H20.845V19.7759H10.1554V22.9828Z" fill="#384685"/>
<path d="M21.914 19.7759H9.08643V14.431H21.914V19.7759ZM10.1554 18.7069H20.845V15.5H10.1554V18.7069Z" fill="#384685"/>
<path d="M30.9999 24.0517H20.8447V0H30.9999V24.0517ZM21.9137 22.9828H29.9309V1.06897H21.9137V22.9828Z" fill="#384685"/>
<path d="M16.5691 16.569H14.4312V17.6379H16.5691V16.569Z" fill="#384685"/>
<path d="M16.5691 20.8448H14.4312V21.9138H16.5691V20.8448Z" fill="#384685"/>
<path d="M16.1894 4.96789L13.249 7.90823L14.0049 8.66411L16.9452 5.72376L16.1894 4.96789Z" fill="#384685"/>
<path d="M16.1926 8.17234L14.3218 10.0431L15.0777 10.799L16.9484 8.92821L16.1926 8.17234Z" fill="#384685"/>
<path d="M8.01721 11.2242H6.94824V13.3621H8.01721V11.2242Z" fill="#384685"/>
<path d="M24.0519 11.2242H22.9829V13.3621H24.0519V11.2242Z" fill="#384685"/>
</svg>
