<svg width="18" height="14" viewBox="0 0 18 14" fill="none" xmlns="http://www.w3.org/2000/svg">
<path d="M3.20801 6.68066C3.20801 9.60449 4.27148 11.0664 6.39844 11.0664C8.46094 11.0664 9.49219 9.60449 9.49219 6.68066C9.49219 3.80371 8.46094 2.36523 6.39844 2.36523C4.27148 2.36523 3.20801 3.80371 3.20801 6.68066ZM0.791016 6.7334C0.791016 2.47363 2.66016 0.34375 6.39844 0.34375C10.0723 0.34375 11.9092 2.47363 11.9092 6.7334C11.9092 10.9697 10.0723 13.0879 6.39844 13.0879C2.66016 13.0879 0.791016 10.9697 0.791016 6.7334ZM14.9062 13V2.35645H13.5879V1.39844L17.2354 0.167969V13H14.9062Z" fill="#A8D1E7"/>
</svg>
