<svg width="23" height="14" viewBox="0 0 23 14" fill="none" xmlns="http://www.w3.org/2000/svg">
<path d="M3.20801 6.68066C3.20801 9.60449 4.27148 11.0664 6.39844 11.0664C8.46094 11.0664 9.49219 9.60449 9.49219 6.68066C9.49219 3.80371 8.46094 2.36523 6.39844 2.36523C4.27148 2.36523 3.20801 3.80371 3.20801 6.68066ZM0.791016 6.7334C0.791016 2.47363 2.66016 0.34375 6.39844 0.34375C10.0723 0.34375 11.9092 2.47363 11.9092 6.7334C11.9092 10.9697 10.0723 13.0879 6.39844 13.0879C2.66016 13.0879 0.791016 10.9697 0.791016 6.7334ZM13.5879 13V11.2422C17.7773 8.33008 19.8721 5.92773 19.8721 4.03516C19.8721 2.92187 19.1104 2.36523 17.5869 2.36523C16.2979 2.36523 15.082 2.6875 13.9395 3.33203V1.22266C15.082 0.636719 16.2979 0.34375 17.5869 0.34375C20.6631 0.34375 22.2012 1.57422 22.2012 4.03516C22.2012 6.20312 20.5225 8.51758 17.165 10.9785H22.2012V13H13.5879Z" fill="#A8D1E7"/>
</svg>
