<svg width="22" height="14" viewBox="0 0 22 14" fill="none" xmlns="http://www.w3.org/2000/svg">
<path d="M3.20801 6.68066C3.20801 9.60449 4.27148 11.0664 6.39844 11.0664C8.46094 11.0664 9.49219 9.60449 9.49219 6.68066C9.49219 3.80371 8.46094 2.36523 6.39844 2.36523C4.27148 2.36523 3.20801 3.80371 3.20801 6.68066ZM0.791016 6.7334C0.791016 2.47363 2.66016 0.34375 6.39844 0.34375C10.0723 0.34375 11.9092 2.47363 11.9092 6.7334C11.9092 10.9697 10.0723 13.0879 6.39844 13.0879C2.66016 13.0879 0.791016 10.9697 0.791016 6.7334ZM13.5879 0.871094C14.7598 0.519531 15.9902 0.34375 17.2793 0.34375C20.4141 0.34375 21.9814 1.48633 21.9814 3.77148C21.9814 5.1543 21.4307 6.10645 20.3291 6.62793C21.4307 7.12598 21.9814 8.07812 21.9814 9.48438C21.9814 11.8867 20.4141 13.0879 17.2793 13.0879C15.9902 13.0879 14.7598 12.9121 13.5879 12.5605V10.4512C14.7598 10.8613 15.9902 11.0664 17.2793 11.0664C18.8613 11.0664 19.6523 10.5391 19.6523 9.48438C19.6523 8.25391 19.0898 7.63867 17.9648 7.63867H14.9062V5.61719H17.9385C19.0811 5.61719 19.6523 5.00195 19.6523 3.77148C19.6523 2.83398 18.8613 2.36523 17.2793 2.36523C15.9902 2.36523 14.7598 2.57031 13.5879 2.98047V0.871094Z" fill="#A8D1E7"/>
</svg>
